<svg width="32" height="34" viewBox="0 0 32 34" fill="none" xmlns="http://www.w3.org/2000/svg">
<path d="M26.8149 3.52454H28.8109V4.44695H26.8149V3.52454Z" fill="#66757F"/>
<path d="M0 10.9038V29.3521C0 31.3897 1.791 33.0418 4 33.0418H28C30.209 33.0418 32 31.3897 32 29.3521V10.9038H0Z" fill="#CCD6DD"/>
<path d="M28 3.52454H4C1.791 3.52454 0 5.17658 0 7.21419V11.8263H32V7.21419C32 5.17658 30.209 3.52454 28 3.52454Z" fill="#DD2E44"/>
<path d="M6.83594 7.88849C6.13394 7.88849 5.56494 7.27416 5.56494 6.51502C5.56494 5.75679 6.13394 5.14154 6.83594 5.14154C7.53694 5.14154 8.10594 5.75679 8.10594 6.51502C8.10594 7.27324 7.53694 7.88849 6.83594 7.88849ZM12.8359 7.88849C12.1339 7.88849 11.5649 7.27416 11.5649 6.51502C11.5649 5.75679 12.1339 5.14154 12.8359 5.14154C13.5369 5.14154 14.1059 5.75679 14.1059 6.51502C14.1059 7.27324 13.5369 7.88849 12.8359 7.88849ZM18.8359 7.88849C18.1339 7.88849 17.5649 7.27416 17.5649 6.51502C17.5649 5.75679 18.1339 5.14154 18.8359 5.14154C19.5369 5.14154 20.1069 5.75679 20.1069 6.51502C20.1059 7.27324 19.5369 7.88849 18.8359 7.88849ZM24.8359 7.88849C24.1339 7.88849 23.5649 7.27416 23.5649 6.51502C23.5649 5.75679 24.1339 5.14154 24.8359 5.14154C25.5369 5.14154 26.1069 5.75679 26.1069 6.51502C26.1059 7.27324 25.5369 7.88849 24.8359 7.88849Z" fill="#292F33"/>
<path d="M25.3149 0C24.0379 0 22.9319 0.739776 22.3209 1.81716C21.7149 0.762836 20.6039 0 19.3149 0C18.0379 0 16.9319 0.739776 16.3209 1.81716C15.7149 0.762836 14.6039 0 13.3149 0C12.0379 0 10.9319 0.739776 10.3209 1.81716C9.71494 0.762836 8.60394 0 7.31494 0C5.38094 0 3.81494 1.67787 3.81494 3.69427C3.81494 5.40442 4.85994 6.80372 6.38394 7.31566C7.14294 7.56933 7.60794 6.90334 7.54294 6.36927C7.48794 5.92651 7.16894 5.63779 6.81394 5.43025C6.32894 5.14707 5.81394 4.50046 5.81394 3.69888C5.81394 2.68053 6.48494 1.76642 7.31394 1.76642C8.14294 1.76642 8.81394 2.60121 8.81394 3.52362H9.82994C9.82694 3.58081 9.81394 3.63523 9.81394 3.69334C9.81394 5.4035 10.8589 6.8028 12.3829 7.31474C13.1419 7.56841 13.6069 6.90242 13.5419 6.36834C13.4869 5.92651 13.1679 5.63779 12.8129 5.43025C12.3279 5.14707 11.8129 4.50046 11.8129 3.69888C11.8129 2.68053 12.4839 1.76642 13.3129 1.76642C14.1419 1.76642 14.8149 2.60213 14.8149 3.52454H15.8309C15.8279 3.58173 15.8149 3.63616 15.8149 3.69427C15.8149 5.40442 16.8599 6.80372 18.3839 7.31566C19.1429 7.56933 19.6079 6.90334 19.5429 6.36927C19.4879 5.92743 19.1689 5.63872 18.8139 5.43117C18.3289 5.14799 17.8139 4.50138 17.8139 3.6998C17.8139 2.68146 18.4849 1.76734 19.3139 1.76734C20.1429 1.76734 20.8149 2.60213 20.8149 3.52454H21.8309C21.8279 3.58173 21.8149 3.63616 21.8149 3.69427C21.8149 5.40442 22.8599 6.80372 24.3839 7.31566C25.1429 7.56933 25.6079 6.90334 25.5429 6.36927C25.4879 5.92743 25.1689 5.63872 24.8139 5.43117C24.3289 5.14799 23.8139 4.50138 23.8139 3.6998C23.8139 2.68146 24.4849 1.76734 25.3139 1.76734C26.1429 1.76734 26.8149 2.60213 26.8149 3.52454H28.8109C28.7899 1.67972 27.2349 0 25.3149 0Z" fill="#66757F"/>
<path d="M9 13.6711H13V17.3607H9V13.6711ZM14 13.6711H18V17.3607H14V13.6711ZM19 13.6711H23V17.3607H19V13.6711ZM24 13.6711H28V17.3607H24V13.6711ZM4 18.2831H8V21.9728H4V18.2831ZM9 18.2831H13V21.9728H9V18.2831ZM14 18.2831H18V21.9728H14V18.2831ZM19 18.2831H23V21.9728H19V18.2831ZM24 18.2831H28V21.9728H24V18.2831ZM4 22.8952H8V26.5849H4V22.8952ZM9 22.8952H13V26.5849H9V22.8952ZM14 22.8952H18V26.5849H14V22.8952ZM19 22.8952H23V26.5849H19V22.8952ZM24 22.8952H28V26.5849H24V22.8952ZM4 27.5073H8V31.1969H4V27.5073ZM9 27.5073H13V31.1969H9V27.5073ZM14 27.5073H18V31.1969H14V27.5073Z" fill="white"/>
</svg>
