<svg width="19" height="18" viewBox="0 0 19 18" fill="none" xmlns="http://www.w3.org/2000/svg">
<path d="M9.51527 0C4.31413 0 0.0976562 3.31835 0.0976562 7.41177C0.0976562 9.72424 1.44437 11.7889 3.55287 13.1479C3.27872 14.3704 2.63989 16.1836 1.14406 18C4.15665 17.4918 6.08255 16.0089 7.27388 14.6033C7.9938 14.742 8.74145 14.8235 9.51527 14.8235C14.7164 14.8235 18.9329 11.5052 18.9329 7.41177C18.9329 3.31835 14.7164 0 9.51527 0Z" fill="#BDDDF4"/>
<path d="M9.51536 8.47058C10.0933 8.47058 10.5617 7.99653 10.5617 7.41176C10.5617 6.82699 10.0933 6.35294 9.51536 6.35294C8.93747 6.35294 8.46899 6.82699 8.46899 7.41176C8.46899 7.99653 8.93747 8.47058 9.51536 8.47058Z" fill="#2A6797"/>
<path d="M13.7007 8.47058C14.2786 8.47058 14.7471 7.99653 14.7471 7.41176C14.7471 6.82699 14.2786 6.35294 13.7007 6.35294C13.1228 6.35294 12.6543 6.82699 12.6543 7.41176C12.6543 7.99653 13.1228 8.47058 13.7007 8.47058Z" fill="#2A6797"/>
<path d="M5.32963 8.47058C5.90755 8.47058 6.37606 7.99653 6.37606 7.41176C6.37606 6.82699 5.90755 6.35294 5.32963 6.35294C4.7517 6.35294 4.2832 6.82699 4.2832 7.41176C4.2832 7.99653 4.7517 8.47058 5.32963 8.47058Z" fill="#2A6797"/>
</svg>
