<svg width="25" height="24" viewBox="0 0 25 24" fill="none" xmlns="http://www.w3.org/2000/svg">
<path d="M24.9038 0.718796C25.0991 1.15318 24.9916 1.65459 24.6307 1.98597L15.9278 10.0135C15.7996 10.1325 15.6343 10.5 15.6343 10.6663V21.897C15.6343 22.3682 15.3268 22.7926 14.8576 22.9705C14.7036 23.0303 14.5391 23.0603 14.373 23.0603C14.0399 23.0603 13.7193 22.9391 13.4813 22.7195L9.73492 19.2639C9.4983 19.0457 9.36543 18.7501 9.36543 18.4414V10.6663C9.36543 10.4992 9.20074 10.1322 9.07272 10.0142L0.36851 1.98549C0.00874847 1.65216 -0.0989877 1.15229 0.0958703 0.718807C0.28982 0.283643 0.749916 0 1.26078 0H23.7389C24.2497 0 24.7098 0.283642 24.9038 0.718796Z" fill="white"/>
</svg>
