<svg width="20" height="12" viewBox="0 0 20 12" fill="none" xmlns="http://www.w3.org/2000/svg">
<path d="M3.90434 1.6733C3.90434 1.98119 3.65446 2.23106 3.34657 2.23106H0.557762C0.249878 2.23106 0 1.98119 0 1.6733C0 1.36542 0.249878 1.11554 0.557762 1.11554H3.34657C3.65446 1.11554 3.90434 1.36542 3.90434 1.6733ZM2.78881 4.46211C2.78881 4.77 2.53893 5.01988 2.23105 5.01988H0.557762C0.249878 5.01988 0 4.77 0 4.46211C0 4.15423 0.249878 3.90435 0.557762 3.90435H2.23105C2.53893 3.90435 2.78881 4.15423 2.78881 4.46211ZM1.67329 7.25093C1.67329 7.55937 1.42341 7.80869 1.11552 7.80869H0.557762C0.249878 7.80869 0 7.55937 0 7.25093C0 6.94248 0.249878 6.69316 0.557762 6.69316H1.11552C1.42341 6.69316 1.67329 6.94248 1.67329 7.25093Z" fill="#55ACEE"/>
<path d="M18.0163 8.9242C17.6671 10.1563 16.3848 11.1552 15.1527 11.1552H3.99749C2.76539 11.1552 2.04978 10.1563 2.39894 8.9242L4.29422 2.23105C4.64338 0.998952 5.92512 0 7.15721 0H18.3125C19.5446 0 20.2607 0.998952 19.9116 2.23105L18.0163 8.9242Z" fill="#CCD6DD"/>
<path d="M9.66938 4.81682L2.44524 10.0113C2.42627 10.0269 2.41512 10.0464 2.39783 10.062C2.49767 10.3799 2.68675 10.6438 2.95113 10.834C2.97065 10.8211 2.99184 10.8156 3.01081 10.8005L10.2349 5.6055C10.5144 5.38741 10.6148 5.03491 10.4586 4.81682C10.3019 4.59874 9.94937 4.59874 9.66938 4.81682ZM17.3721 10.062C17.3637 10.0464 17.3631 10.0269 17.3531 10.0118L13.0728 4.81682C12.9161 4.59874 12.5636 4.59874 12.283 4.81682C12.0036 5.03491 11.9038 5.38741 12.0599 5.6055L16.3413 10.8005C16.3514 10.815 16.3698 10.8211 16.3815 10.834C16.753 10.6443 17.0921 10.3799 17.3721 10.062Z" fill="#99AAB5"/>
<path d="M19.9116 2.23105C20.2608 0.998952 19.5446 0 18.3125 0H7.15724C5.92514 0 4.6434 0.998952 4.29424 2.23105L4.28253 2.27232L9.19419 6.98653C10.1039 7.87003 11.307 7.80923 12.3874 7.19346L19.7649 2.75144L19.9116 2.23105Z" fill="#99AAB5"/>
<path d="M18.3124 0H7.15714C6.27699 0 5.37843 0.513699 4.80505 1.25385L9.94595 6.15881C10.3637 6.55984 11.3035 6.56542 11.9851 6.15881L19.9578 1.26835C19.8094 0.520392 19.1981 0 18.3124 0Z" fill="#E1E8ED"/>
</svg>
