<svg width="356" height="343" viewBox="0 0 356 343" fill="none" xmlns="http://www.w3.org/2000/svg">
<g clip-path="url(#clip0)">
<path d="M316.36 66.5562H34.0303C30.7166 66.5562 28.0303 69.2424 28.0303 72.5561V225.024C28.0303 228.338 30.7166 231.024 34.0303 231.024H316.36C319.674 231.024 322.36 228.338 322.36 225.024V72.5562C322.36 69.2424 319.674 66.5562 316.36 66.5562Z" stroke="#FAFAFA" stroke-width="1.5" stroke-miterlimit="10" stroke-dasharray="4 4"/>
<path d="M97.3877 193.525C100.095 193.525 102.289 191.334 102.289 188.631C102.289 185.928 100.095 183.737 97.3877 183.737C94.6808 183.737 92.4863 185.928 92.4863 188.631C92.4863 191.334 94.6808 193.525 97.3877 193.525Z" stroke="white" stroke-width="1.405" stroke-miterlimit="10" stroke-linecap="round" stroke-linejoin="round"/>
<path d="M7.03906 127.743H36.1644" stroke="#ACC7D8" stroke-width="1.0411" stroke-miterlimit="10"/>
<path d="M311.656 217.621L335.597 314.596L274.769 333.36L267.849 266.328L231.155 235.5L258.605 189.04L311.656 217.621Z" fill="#D86627"/>
<path d="M288.207 140.661L258.597 189.041C258.597 189.041 297.235 240.99 297.808 239.436C298.382 237.881 311.649 217.622 311.649 217.622L288.207 140.661Z" fill="#D86627"/>
<path d="M277.882 202.442C277.882 202.442 276.318 218.358 287.931 233.605C287.931 233.605 279.64 228.77 273.577 212.944L277.882 202.442Z" fill="#2D2A2A"/>
<path d="M228.824 117.48L203.796 101.988C200.377 99.8683 195.893 100.91 193.762 104.323C192.027 107.112 192.377 110.719 194.619 113.122L215.9 132.525L228.824 117.48Z" fill="#D86627"/>
<path d="M226.634 145.837L199.825 134.815C196.116 133.261 191.848 135.001 190.291 138.705C189.017 141.732 189.933 145.235 192.525 147.258L218.41 163.91L226.634 145.837Z" fill="#D86627"/>
<path d="M259.998 250.316L197.449 238.498C192.51 237.561 189.27 232.808 190.201 227.885L214.485 91.8645C215.423 86.9336 220.183 83.6983 225.114 84.628L287.663 96.4458C292.602 97.3829 295.842 102.135 294.911 107.059L270.627 243.079C269.696 248.01 264.936 251.245 259.998 250.316Z" fill="#2D2A2A"/>
<path d="M259.543 246.642L199.214 235.248C195.281 234.504 192.696 230.719 193.441 226.792L217.256 93.2627C218.001 89.3358 221.792 86.7551 225.725 87.4988L286.054 98.8927C289.987 99.6364 292.572 103.422 291.827 107.349L268.013 240.878C267.268 244.805 263.469 247.385 259.543 246.642Z" fill="white"/>
<path d="M266.001 99.8154L244.042 95.658C240.6 95.0035 238.336 91.6939 238.991 88.2505L273.42 94.7655C272.772 98.209 269.45 100.47 266.001 99.8154Z" fill="#2D2A2A"/>
<path d="M327.039 117.911L267.819 107.722C267.097 107.596 266.613 106.912 266.732 106.19L269.711 88.9134C269.838 88.192 270.523 87.7086 271.246 87.8276L330.465 98.0166C331.188 98.1431 331.672 98.8273 331.553 99.5487L328.573 116.826C328.446 117.547 327.761 118.03 327.039 117.911Z" fill="#791E89"/>
<path d="M282.59 100.018C282.106 102.799 279.462 104.674 276.669 104.19C273.883 103.707 272.005 101.067 272.49 98.2776C272.974 95.4961 275.618 93.6219 278.412 94.1053C281.197 94.5887 283.075 97.2289 282.59 100.018Z" fill="white"/>
<path d="M287.806 99.0361L317.966 104.227" stroke="white" stroke-width="1.0216" stroke-miterlimit="10" stroke-linecap="round" stroke-linejoin="round"/>
<path d="M287.075 103.269L306.189 106.563" stroke="white" stroke-width="1.0216" stroke-miterlimit="10" stroke-linecap="round" stroke-linejoin="round"/>
<path d="M215.625 169.272L237.1 172.968" stroke="url(#paint0_linear)" stroke-width="1.0216" stroke-miterlimit="10" stroke-linecap="round" stroke-linejoin="round"/>
<path d="M214.902 173.445L266.508 182.325" stroke="url(#paint1_linear)" stroke-width="1.0216" stroke-miterlimit="10" stroke-linecap="round" stroke-linejoin="round"/>
<path d="M225.092 121.666L276.706 130.546" stroke="url(#paint2_linear)" stroke-width="1.0216" stroke-miterlimit="10" stroke-linecap="round" stroke-linejoin="round"/>
<path d="M224 129L275.613 137.88" stroke="url(#paint3_linear)" stroke-width="1.0216" stroke-miterlimit="10" stroke-linecap="round" stroke-linejoin="round"/>
<path d="M222 137L273.613 145.88" stroke="url(#paint4_linear)" stroke-width="1.0216" stroke-miterlimit="10" stroke-linecap="round" stroke-linejoin="round"/>
<path d="M221 145L272.613 153.88" stroke="url(#paint5_linear)" stroke-width="1.0216" stroke-miterlimit="10" stroke-linecap="round" stroke-linejoin="round"/>
<path d="M219 153L270.613 161.88" stroke="url(#paint6_linear)" stroke-width="1.0216" stroke-miterlimit="10" stroke-linecap="round" stroke-linejoin="round"/>
<path d="M262.662 215.981L206.054 206.175C205.361 206.054 204.899 205.392 205.019 204.695L207.867 188.059C207.987 187.363 208.646 186.898 209.338 187.019L265.946 196.825C266.639 196.945 267.101 197.607 266.981 198.304L264.133 214.94C264.004 215.628 263.346 216.101 262.662 215.981Z" fill="#00BCD4"/>
<path d="M222.216 199.405C221.814 201.725 219.609 203.279 217.285 202.878C214.961 202.476 213.404 200.275 213.806 197.954C214.208 195.634 216.413 194.08 218.737 194.481C221.061 194.883 222.618 197.092 222.216 199.405Z" fill="white"/>
<path d="M226.558 198.594L251.661 202.915" stroke="white" stroke-width="0.8504" stroke-miterlimit="10" stroke-linecap="round" stroke-linejoin="round"/>
<path d="M225.948 202.119L241.859 204.856" stroke="white" stroke-width="0.8504" stroke-miterlimit="10" stroke-linecap="round" stroke-linejoin="round"/>
<path d="M258.662 238.981L202.054 229.175C201.361 229.054 200.899 228.392 201.019 227.695L203.867 211.059C203.987 210.363 204.646 209.898 205.338 210.019L261.946 219.825C262.639 219.945 263.101 220.607 262.981 221.304L260.133 237.94C260.004 238.628 259.346 239.101 258.662 238.981Z" fill="#00BCD4"/>
<path d="M218.216 222.405C217.814 224.725 215.609 226.279 213.285 225.878C210.961 225.476 209.404 223.275 209.806 220.954C210.208 218.634 212.413 217.08 214.737 217.481C217.061 217.883 218.618 220.092 218.216 222.405Z" fill="white"/>
<path d="M222.558 221.594L247.661 225.915" stroke="white" stroke-width="0.8504" stroke-miterlimit="10" stroke-linecap="round" stroke-linejoin="round"/>
<path d="M221.948 225.119L237.859 227.856" stroke="white" stroke-width="0.8504" stroke-miterlimit="10" stroke-linecap="round" stroke-linejoin="round"/>
<path d="M302.129 57.0438L263.625 50.2387C262.367 50.0156 261.525 48.8107 261.748 47.5538L265.905 24.1264C266.128 22.8695 267.335 22.0291 268.594 22.2522L307.097 29.0573C308.356 29.2804 309.198 30.4853 308.975 31.7422L304.818 55.1696C304.595 56.4265 303.388 57.2669 302.129 57.0438Z" fill="#00CF6E"/>
<path d="M278.382 51.2651L281.258 58.6057C281.563 59.3123 282.502 59.461 283.016 58.8883L287.917 52.9534L278.382 51.2651Z" fill="#00CF6E"/>
<path d="M285.451 35.6094C284.393 34.1294 282.33 33.7873 280.847 34.8434L279.872 35.5425L279.171 34.5533C278.114 33.0659 276.058 32.7237 274.568 33.7724C273.086 34.8285 272.735 36.8812 273.793 38.3686L276.4 42.0352C276.408 42.0427 276.408 42.0501 276.415 42.0575C276.832 42.6377 277.406 43.0467 278.032 43.2624C279.007 43.5896 280.117 43.4632 281.019 42.8236L284.691 40.2057C286.166 39.1496 286.509 37.0894 285.451 35.6094Z" fill="white"/>
<path d="M294.01 46.5274L291.216 46.0366L292.17 40.652C292.289 39.9975 292.408 39.4025 292.527 38.867C292.319 39.0455 292.065 39.224 291.767 39.41L290.442 40.1611L289.324 38.1531L293.332 35.9219L295.812 36.3607L294.01 46.5274Z" fill="white"/>
<path d="M202.104 66.0276L235.52 71.5461L238.314 54.6634C238.545 53.2652 237.599 51.9414 236.198 51.7108L205.322 46.6089C203.922 46.3783 202.596 47.3228 202.365 48.721L199.989 63.0676C199.751 64.4732 200.697 65.7896 202.104 66.0276Z" fill="white"/>
<path d="M236.184 67.5229L235.021 74.6627C234.94 75.1535 234.291 75.28 234.031 74.856L228.869 66.3403L236.184 67.5229Z" fill="white"/>
<path d="M213.122 57.6462C212.98 58.5386 212.131 59.1485 211.237 58.9997C210.343 58.8584 209.732 58.0106 209.881 57.1181C210.023 56.2256 210.872 55.6158 211.766 55.7645C212.66 55.9133 213.271 56.7537 213.122 57.6462Z" fill="#00CF6E"/>
<path d="M220.071 58.7692C219.93 59.6617 219.081 60.2715 218.187 60.1228C217.293 59.9815 216.682 59.1336 216.831 58.2412C216.973 57.3487 217.822 56.7388 218.716 56.8876C219.609 57.0363 220.213 57.8767 220.071 58.7692Z" fill="#00CF6E"/>
<path d="M227.014 59.8927C226.872 60.7852 226.023 61.3951 225.129 61.2463C224.235 61.105 223.624 60.2572 223.773 59.3647C223.915 58.4722 224.764 57.8624 225.658 58.0111C226.552 58.1599 227.163 59.0003 227.014 59.8927Z" fill="#00CF6E"/>
<path d="M311.656 217.622C311.656 217.622 313.466 175.936 309.965 162.609L289.935 129.669C287.954 124.545 284.393 122.269 279.611 124.983C276.333 126.843 276.579 133.492 277.197 137.21C278.643 145.882 282.121 153.238 284.401 160.05L311.656 217.622Z" fill="#D86627"/>
<path d="M200.816 168.507L207.512 172.999C210.142 175.096 210.961 178.733 209.479 181.753C207.691 185.397 203.237 186.832 199.654 184.921L189.851 179.968C185.605 177.826 183.78 172.739 185.702 168.388L185.91 167.919C187.892 163.427 193.143 161.374 197.657 163.323L201.449 164.959L200.816 168.507Z" fill="#D86627"/>
<path d="M196.436 193.08L203.215 196.553C205.747 198.137 206.835 201.268 205.829 204.08C204.615 207.471 200.831 209.182 197.479 207.858L188.339 204.474C184.376 203.009 182.261 198.703 183.52 194.679L183.654 194.24C184.95 190.075 189.374 187.74 193.553 189.012L196.972 190.053L196.436 193.08Z" fill="#D86627"/>
<path d="M266.441 301.291V338.968H352.379L328.751 263.034L266.441 301.291Z" fill="#FEC02F"/>
<path d="M256.668 341.816L354.823 290.216" stroke="#FF8F00" stroke-width="3.1668" stroke-miterlimit="10" stroke-linecap="round" stroke-linejoin="round"/>
<path d="M37.7882 156.146C37.7882 156.146 33.8403 159.902 37.3115 173.036C41.3488 188.305 48.3732 219.616 48.3732 219.616L96.5678 239.533C96.5678 239.533 128.941 212.015 130.528 189.725C130.528 189.725 83.8525 137.768 75.2192 137.248C66.5858 136.72 37.7882 156.146 37.7882 156.146Z" fill="#FFB7A8"/>
<path d="M135.109 148.672L151.847 130.272C154.327 127.483 158.819 127.914 160.718 131.127C161.791 132.934 161.731 135.195 160.577 136.958L144.77 165.019L135.109 148.672Z" fill="#FFB7A8"/>
<path d="M137.434 128.53L156.592 95.8731C158.388 92.809 157.315 88.8746 154.216 87.1417C151.713 85.7435 148.592 86.1972 146.588 88.235L126.752 108.435L137.434 128.53Z" fill="#FFB7A8"/>
<path d="M126.432 97.1228L143.117 70.6386C144.153 68.7645 143.937 66.444 142.581 64.7855C140.696 62.4799 137.27 62.1973 135.028 64.1682L124.018 74.2011L126.432 97.1228Z" fill="#FFB7A8"/>
<path d="M113.44 60.3385L114.282 52.574C114.625 49.4058 111.958 46.7283 108.785 47.063C107.049 47.2489 105.529 48.3199 104.785 49.8966L98.0581 64.0646L113.44 60.3385Z" fill="#FFB7A8"/>
<path d="M49.4013 212.364L26.6895 290.47L84.9328 304.921L96.568 239.525L49.4013 212.364Z" fill="#FFB7A8"/>
<path d="M149.724 202.934L87.473 216.255C82.5567 217.303 77.7223 214.18 76.672 209.271L46.243 74.4851C45.1927 69.5765 48.3213 64.7497 53.2376 63.7011L115.488 50.3809C120.405 49.3323 125.239 52.4559 126.289 57.3645L156.718 192.143C157.769 197.052 154.64 201.886 149.724 202.934Z" fill="#2D2A2A"/>
<path d="M147.877 199.722L87.8458 212.566C83.9351 213.399 80.084 210.915 79.2423 207.003L49.3422 74.6937C48.508 70.7891 50.9959 66.9441 54.9141 66.1037L114.945 53.2595C118.856 52.4265 122.707 54.9105 123.549 58.8226L153.449 191.139C154.29 195.044 151.795 198.889 147.877 199.722Z" fill="white"/>
<path d="M96.829 61.8786L74.9738 66.5492C71.5472 67.2781 68.1729 65.0989 67.4429 61.6778L101.708 54.3521C102.438 57.7806 100.255 61.1497 96.829 61.8786Z" fill="#2D2A2A"/>
<path d="M77.2456 147.771L98.5124 142.989" stroke="url(#paint7_linear)" stroke-width="1.0216" stroke-miterlimit="10" stroke-linecap="round" stroke-linejoin="round"/>
<path d="M78.1763 151.899L129.269 140.409" stroke="url(#paint8_linear)" stroke-width="1.0216" stroke-miterlimit="10" stroke-linecap="round" stroke-linejoin="round"/>
<path d="M82.0005 165.489L133.093 153.999" stroke="url(#paint9_linear)" stroke-width="1.0216" stroke-miterlimit="10" stroke-linecap="round" stroke-linejoin="round"/>
<path d="M88.0015 186.491L139.094 175" stroke="url(#paint10_linear)" stroke-width="1.0216" stroke-miterlimit="10" stroke-linecap="round" stroke-linejoin="round"/>
<path d="M80.0005 158.489L131.093 146.999" stroke="url(#paint11_linear)" stroke-width="1.0216" stroke-miterlimit="10" stroke-linecap="round" stroke-linejoin="round"/>
<path d="M86.0015 179.491L137.094 168" stroke="url(#paint12_linear)" stroke-width="1.0216" stroke-miterlimit="10" stroke-linecap="round" stroke-linejoin="round"/>
<path d="M84.0005 172.489L135.093 160.999" stroke="url(#paint13_linear)" stroke-width="1.0216" stroke-miterlimit="10" stroke-linecap="round" stroke-linejoin="round"/>
<path d="M90.0015 193.491L141.094 182" stroke="url(#paint14_linear)" stroke-width="1.0216" stroke-miterlimit="10" stroke-linecap="round" stroke-linejoin="round"/>
<path d="M114.402 127.223C122.892 116.963 121.446 101.774 111.17 93.2968C100.895 84.8195 85.6818 86.264 77.1911 96.5234C68.7004 106.783 70.1473 121.972 80.4227 130.449C90.6982 138.927 105.911 137.482 114.402 127.223Z" fill="#00CF6E"/>
<path d="M108.754 109.01C110.274 115.785 106.006 122.516 99.2123 124.033C92.4263 125.55 85.685 121.289 84.1654 114.506C82.6459 107.731 86.9141 101 93.7075 99.4828C100.501 97.9656 107.235 102.227 108.754 109.01Z" fill="#FEC02F"/>
<path d="M92.5975 109.032C92.5975 109.032 92.0165 107.901 90.5118 108.243C89.0965 108.563 88.9624 109.85 88.9624 109.85" stroke="#2D2A2A" stroke-width="1.7535" stroke-miterlimit="10" stroke-linecap="round" stroke-linejoin="round"/>
<path d="M101.656 107.01C101.656 107.01 101.075 105.879 99.5699 106.221C98.1546 106.541 98.0205 107.828 98.0205 107.828" stroke="#2D2A2A" stroke-width="1.7535" stroke-miterlimit="10" stroke-linecap="round" stroke-linejoin="round"/>
<path d="M93.3501 114.781C93.3501 114.781 97.0969 116.075 100.069 113.279" stroke="#2D2A2A" stroke-width="1.7535" stroke-miterlimit="10" stroke-linecap="round" stroke-linejoin="round"/>
<path d="M220.734 261.126C222.03 267.329 218.052 273.405 211.84 274.699C205.627 275.993 199.541 272.022 198.245 265.819C196.949 259.617 200.927 253.54 207.139 252.246C213.344 250.945 219.43 254.924 220.734 261.126Z" fill="#00CF6E"/>
<path d="M212.599 260.509C211.578 259.855 210.223 260.152 209.567 261.179L209.135 261.848L208.457 261.409C207.437 260.755 206.081 261.052 205.426 262.064C204.77 263.083 205.068 264.436 206.089 265.091L208.606 266.712C208.614 266.712 208.614 266.719 208.621 266.727C209.023 266.987 209.478 267.091 209.917 267.069C210.603 267.032 211.258 266.682 211.653 266.057L213.269 263.529C213.925 262.517 213.627 261.164 212.599 260.509Z" fill="white"/>
<path d="M69.2137 45.3448L32.6915 53.1093C31.1942 53.4291 29.7268 52.4771 29.4065 50.9822L24.7509 29.1389C24.4306 27.644 25.3841 26.1789 26.8813 25.8591L63.4035 18.0946C64.9007 17.7748 66.3682 18.7267 66.6885 20.2216L71.3441 42.0649C71.6644 43.5598 70.7109 45.0324 69.2137 45.3448Z" fill="#E91E63"/>
<path d="M45.9951 48.7287L51.3137 54.3438C51.85 54.8719 52.7588 54.6636 53.012 53.9497L55.2765 46.7578L45.9951 48.7287Z" fill="#E91E63"/>
<path d="M46.6065 41.8789C49.5116 41.3806 52.4539 40.86 55.0834 40.1758C55.9177 39.9601 56.387 38.4801 55.2845 38.2495C55.6719 37.9446 56.0667 37.6545 56.1635 37.1339C56.2529 36.6431 55.9251 36.063 55.4261 36.0332C56.4764 36.0927 56.5732 34.4268 55.6868 34.0549C56.0369 33.6235 56.2901 33.0881 56.2752 32.5377C56.2603 31.9873 55.9251 31.4221 55.3963 31.251C55.0536 31.1395 54.6737 31.2064 54.3162 31.2659C53.1094 31.489 51.9027 31.7047 50.696 31.9278C50.6662 29.9867 50.3757 27.9117 49.1019 26.4391C48.722 25.9929 47.8281 25.5466 47.2844 26.0449C46.7778 26.5135 47.1056 27.3762 47.2397 27.934C47.8058 30.2544 46.9194 32.8649 45.0571 34.3598C45.0646 34.3673 46.1521 39.3279 46.6065 41.8789Z" fill="#FBFBFB"/>
<path d="M44.1207 34.5471L39.7446 35.377L41.1763 42.9025L45.5524 42.0726L44.1207 34.5471Z" fill="#FBFBFB"/>
<path d="M41.3564 112.861L23.0469 117.145C20.9761 117.629 18.9053 116.349 18.4211 114.282L14.1901 96.2538C13.8102 94.6399 14.8158 93.026 16.4322 92.6467L35.5686 88.1695C37.185 87.7902 38.8014 88.7942 39.1813 90.4081L43.606 109.254C43.971 110.868 42.9728 112.482 41.3564 112.861Z" fill="#FEC02F"/>
<path d="M28.1869 96.9677L30.2875 100.166C30.3694 100.3 30.5258 100.359 30.6823 100.337L34.4514 99.6674C34.809 99.6079 35.0473 100.017 34.8239 100.292L32.4253 103.274C32.3285 103.393 32.3136 103.565 32.3881 103.698L34.1907 107.068C34.362 107.387 34.0492 107.744 33.7065 107.618L30.1236 106.264C29.9746 106.212 29.8107 106.249 29.7064 106.361L27.0546 109.12C26.8014 109.38 26.3693 109.195 26.3842 108.83L26.563 105.007C26.5704 104.851 26.4811 104.71 26.347 104.636L22.8981 102.97C22.5778 102.813 22.6151 102.337 22.9652 102.241L26.6598 101.237C26.8088 101.192 26.9205 101.066 26.9429 100.917L27.4718 97.1313C27.5239 96.7669 27.9932 96.6627 28.1869 96.9677Z" fill="white"/>
<path d="M63.2273 155.351C63.2273 155.351 62.1398 164.528 69.1343 168.373C76.1289 172.226 93.5892 188.93 95.1833 216.671L85.0602 222.517L60.4116 212.551L41.5435 181.24L49.5511 156.786L63.2273 155.351Z" fill="#FFB7A8"/>
<path d="M48.642 127.87L37.0366 157.649C35.9341 159.85 37.2451 162.483 39.6586 162.951L61.916 167.845L66.0726 132.964C66.5865 129.022 64.1433 125.326 60.5156 123.675C56.0686 121.66 50.8171 123.511 48.642 127.87Z" fill="#FFB7A8"/>
<path d="M48.6416 127.87L50.623 124.434C51.7851 122.411 53.5951 120.842 55.7553 119.965L75.0481 109.329C80.0613 107.299 82.0129 114.044 79.5249 119.704C77.5361 124.234 71.8302 133.999 62.1763 139.599L48.6416 127.87Z" fill="#FFB7A8"/>
<path d="M65.4023 114.639C65.4023 114.639 68.7693 119.473 77.343 112.861C80.0097 110.801 81.872 107.499 79.0637 105.64L65.4023 114.639Z" fill="#E91E63"/>
<path d="M94.6914 211.494C94.6914 211.494 95.6076 218.403 94.6914 224.807C94.6914 224.807 98.3563 215.332 98.2371 210.75L94.6914 211.494Z" fill="#2D2A2A"/>
<path d="M30.9653 255.708L98.0654 276.146L87.6219 338.968H0L30.9653 255.708Z" fill="#56B3FF"/>
<path d="M98.7059 41.0801L93 31.731" stroke="#20E08E" stroke-width="3" stroke-linecap="round" stroke-linejoin="round"/>
<path d="M107.932 39.921L107.041 26" stroke="#20E08E" stroke-width="3" stroke-linecap="round" stroke-linejoin="round"/>
<path d="M116.458 41.6219L121.53 29.0176" stroke="#20E08E" stroke-width="3" stroke-linecap="round" stroke-linejoin="round"/>
<path d="M124.232 45.9998L130.538 39.9692" stroke="#20E08E" stroke-width="3" stroke-linecap="round" stroke-linejoin="round"/>
</g>
<defs>
<linearGradient id="paint0_linear" x1="227.867" y1="170.019" x2="227.641" y2="173.063" gradientUnits="userSpaceOnUse">
<stop offset="0.228185" stop-color="#15E48C"/>
<stop offset="1" stop-color="#67CEF3"/>
</linearGradient>
<linearGradient id="paint1_linear" x1="244.321" y1="175.241" x2="243.778" y2="182.553" gradientUnits="userSpaceOnUse">
<stop offset="0.228185" stop-color="#15E48C"/>
<stop offset="1" stop-color="#67CEF3"/>
</linearGradient>
<linearGradient id="paint2_linear" x1="254.516" y1="123.461" x2="253.973" y2="130.774" gradientUnits="userSpaceOnUse">
<stop offset="0.228185" stop-color="#15E48C"/>
<stop offset="1" stop-color="#67CEF3"/>
</linearGradient>
<linearGradient id="paint3_linear" x1="253.423" y1="130.795" x2="252.88" y2="138.108" gradientUnits="userSpaceOnUse">
<stop offset="0.228185" stop-color="#15E48C"/>
<stop offset="1" stop-color="#67CEF3"/>
</linearGradient>
<linearGradient id="paint4_linear" x1="251.423" y1="138.795" x2="250.88" y2="146.108" gradientUnits="userSpaceOnUse">
<stop offset="0.228185" stop-color="#15E48C"/>
<stop offset="1" stop-color="#67CEF3"/>
</linearGradient>
<linearGradient id="paint5_linear" x1="250.423" y1="146.795" x2="249.88" y2="154.108" gradientUnits="userSpaceOnUse">
<stop offset="0.228185" stop-color="#15E48C"/>
<stop offset="1" stop-color="#67CEF3"/>
</linearGradient>
<linearGradient id="paint6_linear" x1="248.423" y1="154.795" x2="247.88" y2="162.108" gradientUnits="userSpaceOnUse">
<stop offset="0.228185" stop-color="#15E48C"/>
<stop offset="1" stop-color="#67CEF3"/>
</linearGradient>
<linearGradient id="paint7_linear" x1="89.3691" y1="143.956" x2="88.9888" y2="147.879" gradientUnits="userSpaceOnUse">
<stop offset="0.228185" stop-color="#15E48C"/>
<stop offset="1" stop-color="#67CEF3"/>
</linearGradient>
<linearGradient id="paint8_linear" x1="107.302" y1="142.732" x2="106.389" y2="152.158" gradientUnits="userSpaceOnUse">
<stop offset="0.228185" stop-color="#15E48C"/>
<stop offset="1" stop-color="#67CEF3"/>
</linearGradient>
<linearGradient id="paint9_linear" x1="111.126" y1="156.321" x2="110.213" y2="165.748" gradientUnits="userSpaceOnUse">
<stop offset="0.228185" stop-color="#15E48C"/>
<stop offset="1" stop-color="#67CEF3"/>
</linearGradient>
<linearGradient id="paint10_linear" x1="117.127" y1="177.323" x2="116.214" y2="186.75" gradientUnits="userSpaceOnUse">
<stop offset="0.228185" stop-color="#15E48C"/>
<stop offset="1" stop-color="#67CEF3"/>
</linearGradient>
<linearGradient id="paint11_linear" x1="109.126" y1="149.321" x2="108.213" y2="158.748" gradientUnits="userSpaceOnUse">
<stop offset="0.228185" stop-color="#15E48C"/>
<stop offset="1" stop-color="#67CEF3"/>
</linearGradient>
<linearGradient id="paint12_linear" x1="115.127" y1="170.323" x2="114.214" y2="179.75" gradientUnits="userSpaceOnUse">
<stop offset="0.228185" stop-color="#15E48C"/>
<stop offset="1" stop-color="#67CEF3"/>
</linearGradient>
<linearGradient id="paint13_linear" x1="113.126" y1="163.321" x2="112.213" y2="172.748" gradientUnits="userSpaceOnUse">
<stop offset="0.228185" stop-color="#15E48C"/>
<stop offset="1" stop-color="#67CEF3"/>
</linearGradient>
<linearGradient id="paint14_linear" x1="119.127" y1="184.323" x2="118.214" y2="193.75" gradientUnits="userSpaceOnUse">
<stop offset="0.228185" stop-color="#15E48C"/>
<stop offset="1" stop-color="#67CEF3"/>
</linearGradient>
<clipPath id="clip0">
<rect width="356" height="343" fill="white"/>
</clipPath>
</defs>
</svg>
