<svg width="190" height="404" viewBox="0 0 190 404" fill="none" xmlns="http://www.w3.org/2000/svg">
<g filter="url(#filter0_dd_8704_17481)">
<path d="M144.379 25.067C150.795 28.5217 154.9 34.2621 156.3 40.6829L164.457 45.0746L156.463 49.9046C155.894 53.1024 154.668 56.2853 152.743 59.2796C144.909 71.4689 128.462 75.9143 116.008 69.2086C103.554 62.5029 99.8091 47.1855 107.644 34.9961C115.478 22.8067 131.925 18.3613 144.379 25.067Z" fill="white"/>
</g>
<g clip-path="url(#clip0_8704_17481)">
<path d="M125.821 54.7712L118.627 45.7995L114.988 48.4837C114.784 48.6346 114.738 48.9068 114.887 49.0916L121.545 57.3937C121.693 57.5787 121.979 57.6062 122.183 57.4554L125.821 54.7712Z" fill="#F44336"/>
<path d="M145.546 41.6708L144.909 40.8762C144.402 40.2438 143.424 40.1495 142.724 40.6655L142.005 41.1964C142.582 40.7078 142.696 39.8939 142.246 39.333L141.535 38.4455C141.064 37.8587 140.157 37.7711 139.508 38.2499L138.5 38.9931C139.087 38.5607 139.217 37.7812 138.792 37.2512L138.179 36.4864C137.754 35.9566 136.934 35.8776 136.349 36.3098L135.373 37.0298C135.959 36.5974 136.089 35.8172 135.664 35.2873L135.206 34.7161C134.781 34.1867 133.962 34.1071 133.376 34.5395L119.124 45.0549L126.562 54.3299C128.207 53.1159 129.65 52.2896 130.918 51.767C134.975 50.0919 137.239 51.5132 138.605 53.2167C139.311 54.0971 141.119 56.3518 141.119 56.3518C141.282 56.5551 141.522 56.6723 141.776 56.6975C142.031 56.722 142.3 56.6546 142.526 56.4881C143.978 55.4168 144.301 53.4851 143.249 52.1728L140.786 49.1016C140.203 48.3747 140.382 47.3047 141.186 46.7116L145.198 43.7516C145.898 43.2351 146.054 42.3036 145.546 41.6708Z" fill="#FFC197"/>
<path d="M120.926 42.3915L116.578 45.6002C116.373 45.7511 116.328 46.0232 116.476 46.2081L124.858 56.6599C125.006 56.8448 125.292 56.8723 125.496 56.7215L129.845 53.5128C130.05 53.362 130.095 53.0898 129.947 52.9049L121.565 42.4532C121.417 42.2683 121.131 42.2407 120.926 42.3915Z" fill="#F44336"/>
</g>
<path d="M30.0202 299C42.7339 299 53.0404 288.703 53.0404 276C53.0404 263.297 42.7339 253 30.0202 253C17.3065 253 7 263.297 7 276C7 288.703 17.3065 299 30.0202 299Z" fill="#FFDA6A"/>
<g filter="url(#filter1_f_8704_17481)">
<path d="M16.7192 280.601C18.9794 280.601 20.8117 278.77 20.8117 276.512C20.8117 274.254 18.9794 272.423 16.7192 272.423C14.459 272.423 12.6267 274.254 12.6267 276.512C12.6267 278.77 14.459 280.601 16.7192 280.601Z" fill="#F55065"/>
</g>
<g filter="url(#filter2_f_8704_17481)">
<path d="M40.7617 273.955C43.0219 273.955 44.8541 272.124 44.8541 269.866C44.8541 267.608 43.0219 265.777 40.7617 265.777C38.5015 265.777 36.6692 267.608 36.6692 269.866C36.6692 272.124 38.5015 273.955 40.7617 273.955Z" fill="#F55065"/>
</g>
<path fill-rule="evenodd" clip-rule="evenodd" d="M24.267 267.665C23.2193 264.444 19.7561 262.681 16.5317 263.727C13.3074 264.774 11.5428 268.234 12.5904 271.456C12.765 271.993 13.3422 272.287 13.8796 272.112C14.417 271.938 14.7111 271.361 14.5365 270.824C13.8381 268.676 15.0145 266.37 17.1641 265.672C19.3137 264.974 21.6224 266.149 22.3209 268.297C22.4955 268.834 23.0727 269.128 23.6101 268.953C24.1475 268.779 24.4416 268.202 24.267 267.665ZM40.6369 262.554C39.5892 259.333 36.126 257.57 32.9017 258.616C29.6773 259.663 27.9127 263.123 28.9604 266.345C29.135 266.882 29.7122 267.176 30.2496 267.001C30.787 266.827 31.0811 266.25 30.9064 265.713C30.208 263.565 31.3844 261.259 33.534 260.561C35.6836 259.863 37.9924 261.038 38.6908 263.186C38.8654 263.723 39.4426 264.017 39.98 263.842C40.5174 263.668 40.8115 263.091 40.6369 262.554ZM19.3855 277.48C19.9808 278.669 23.4306 280.097 26.5279 280.216C30.9687 280.387 34.8929 278.284 37.567 273.426C37.8393 272.932 37.6587 272.31 37.1635 272.038C36.6684 271.766 36.0463 271.946 35.774 272.441C33.4821 276.604 30.2904 278.315 26.6065 278.173C25.2305 278.12 23.8609 277.799 22.6745 277.308C22.1986 277.111 21.7818 276.897 21.4723 276.699C21.3451 276.618 21.245 276.544 21.1798 276.487C21.1673 276.476 21.1763 276.487 21.2157 276.565C20.963 276.06 20.3484 275.856 19.843 276.108C19.3376 276.361 19.1328 276.975 19.3855 277.48Z" fill="black"/>
<path d="M81.381 162.767C90.9802 168.309 103.251 165.027 108.788 155.436C114.325 145.845 111.032 133.578 101.433 128.035C91.834 122.493 79.5634 125.775 74.0262 135.366C68.4889 144.957 71.7818 157.225 81.381 162.767Z" fill="#F55065"/>
<path fill-rule="evenodd" clip-rule="evenodd" d="M94.6199 140.281C94.7312 137.368 93.029 135.067 90.1646 134.025C86.3026 132.622 82.4578 135.438 81.9456 139.988C81.3663 145.13 83.7839 150.394 86.2523 154.774C91.2798 154.722 97.0474 154.184 101.211 151.111C104.895 148.392 105.412 143.654 102.265 141.012C99.9309 139.052 97.0869 138.728 94.6199 140.281Z" fill="white"/>
<path d="M97.141 391.555C111.578 398.358 128.792 392.18 135.589 377.755C142.387 363.331 136.193 346.122 121.756 339.319C107.319 332.516 90.1049 338.694 83.3077 353.118C76.5104 367.543 82.7037 384.751 97.141 391.555Z" fill="#FFDA6A"/>
<path fill-rule="evenodd" clip-rule="evenodd" d="M98.8024 347.507L103.688 353.71L102.195 351.815L96.7724 351.815C96.0634 351.831 95.5022 352.419 95.5189 353.127C95.5357 353.836 96.124 354.397 96.833 354.381L104.727 354.2C105.785 354.176 106.361 352.955 105.706 352.123L100.82 345.92C100.381 345.363 99.5739 345.267 99.0167 345.705C98.4595 346.143 98.3636 346.95 98.8024 347.507ZM130.569 359.939L122.675 360.12C121.617 360.144 121.042 361.365 121.696 362.196L126.582 368.4C127.021 368.957 127.828 369.053 128.385 368.615C128.943 368.177 129.039 367.37 128.6 366.813L124.99 362.634L122.735 362.686L130.63 362.505C131.339 362.489 131.9 361.901 131.883 361.192C131.866 360.484 131.278 359.923 130.569 359.939Z" fill="black"/>
<mask id="mask0_8704_17481" style="mask-type:alpha" maskUnits="userSpaceOnUse" x="90" y="357" width="38" height="28">
<path d="M127.54 374.671C122.221 383.335 111.114 386.79 101.695 382.352C92.2766 377.913 87.8703 367.148 91.1665 357.53L127.54 374.671V374.671Z" fill="white"/>
</mask>
<g mask="url(#mask0_8704_17481)">
<path d="M127.54 374.671C122.221 383.335 111.114 386.79 101.695 382.352C92.2766 377.913 87.8703 367.148 91.1665 357.53L127.54 374.671V374.671Z" fill="black"/>
<path d="M96.6105 393.432C108.962 399.252 121.363 398.904 124.309 392.653C127.254 386.403 119.629 376.617 107.277 370.796C94.9252 364.976 82.5243 365.324 79.5788 371.575C76.6333 377.826 84.2587 387.611 96.6105 393.432Z" fill="#F55065"/>
</g>
<path d="M32 206.791C46.3594 206.791 58 195.16 58 180.814C58 166.467 46.3594 154.836 32 154.836C17.6406 154.836 6 166.467 6 180.814C6 195.16 17.6406 206.791 32 206.791Z" fill="url(#paint0_linear_8704_17481)"/>
<path fill-rule="evenodd" clip-rule="evenodd" d="M41.2729 186.464C39.6287 186.647 37.8635 186.694 35.9765 186.583C35.3394 186.546 34.8533 185.999 34.8908 185.363C34.9283 184.726 35.4751 184.241 36.1122 184.278C40.472 184.534 44.0756 183.889 46.9582 182.665C47.8023 182.306 48.5153 181.925 49.0989 181.548C49.4339 181.331 49.6431 181.172 49.7279 181.098C50.2082 180.678 50.9382 180.727 51.3585 181.207C51.7787 181.687 51.73 182.416 51.2498 182.836C51.0829 182.982 50.7851 183.208 50.3541 183.486C49.6611 183.934 48.8311 184.378 47.8623 184.79C47.1381 185.097 46.3755 185.372 45.5744 185.609C45.7605 185.983 45.8666 186.415 45.8666 186.874C45.8666 188.309 44.8319 189.472 43.5555 189.472C42.2791 189.472 41.2444 188.309 41.2444 186.874C41.2444 186.735 41.2541 186.598 41.2729 186.464H41.2729ZM18.9365 185.753C17.9471 185.486 17.0142 185.162 16.1375 184.79C15.1688 184.378 14.3387 183.934 13.6458 183.486C13.2148 183.208 12.9169 182.982 12.7501 182.836C12.2698 182.416 12.2211 181.687 12.6414 181.207C13.0617 180.727 13.7917 180.678 14.272 181.098C14.3568 181.172 14.5659 181.331 14.9009 181.548C15.4846 181.925 16.1975 182.306 17.0417 182.665C19.9242 183.889 23.5279 184.534 27.8876 184.278C28.5247 184.241 29.0716 184.726 29.109 185.363C29.1465 185.999 28.6604 186.546 28.0233 186.583C26.3584 186.681 24.7882 186.656 23.3124 186.523C23.3262 186.638 23.3333 186.755 23.3333 186.874C23.3333 188.309 22.2985 189.472 21.0222 189.472C19.7458 189.472 18.711 188.309 18.711 186.874C18.711 186.473 18.792 186.093 18.9365 185.753ZM31.9999 197.553C36.4673 197.553 39.511 197.553 40.0888 196.399C40.6666 195.244 36.4673 194.667 31.9999 194.667C27.5326 194.667 23.3333 195.244 23.911 196.399C24.4888 197.553 27.5326 197.553 31.9999 197.553Z" fill="black"/>
<defs>
<filter id="filter0_dd_8704_17481" x="78.5493" y="0.942871" width="110.907" height="100.39" filterUnits="userSpaceOnUse" color-interpolation-filters="sRGB">
<feFlood flood-opacity="0" result="BackgroundImageFix"/>
<feColorMatrix in="SourceAlpha" type="matrix" values="0 0 0 0 0 0 0 0 0 0 0 0 0 0 0 0 0 0 127 0" result="hardAlpha"/>
<feOffset dy="8"/>
<feGaussianBlur stdDeviation="5"/>
<feColorMatrix type="matrix" values="0 0 0 0 0 0 0 0 0 0 0 0 0 0 0 0 0 0 0.2 0"/>
<feBlend mode="normal" in2="BackgroundImageFix" result="effect1_dropShadow_8704_17481"/>
<feColorMatrix in="SourceAlpha" type="matrix" values="0 0 0 0 0 0 0 0 0 0 0 0 0 0 0 0 0 0 127 0" result="hardAlpha"/>
<feOffset dy="4"/>
<feGaussianBlur stdDeviation="12.5"/>
<feColorMatrix type="matrix" values="0 0 0 0 0 0 0 0 0 0 0 0 0 0 0 0 0 0 0.12 0"/>
<feBlend mode="normal" in2="effect1_dropShadow_8704_17481" result="effect2_dropShadow_8704_17481"/>
<feBlend mode="normal" in="SourceGraphic" in2="effect2_dropShadow_8704_17481" result="shape"/>
</filter>
<filter id="filter1_f_8704_17481" x="0.862003" y="260.658" width="31.7145" height="31.7071" filterUnits="userSpaceOnUse" color-interpolation-filters="sRGB">
<feFlood flood-opacity="0" result="BackgroundImageFix"/>
<feBlend mode="normal" in="SourceGraphic" in2="BackgroundImageFix" result="shape"/>
<feGaussianBlur stdDeviation="5.88235" result="effect1_foregroundBlur_8704_17481"/>
</filter>
<filter id="filter2_f_8704_17481" x="24.9045" y="254.013" width="31.7145" height="31.7071" filterUnits="userSpaceOnUse" color-interpolation-filters="sRGB">
<feFlood flood-opacity="0" result="BackgroundImageFix"/>
<feBlend mode="normal" in="SourceGraphic" in2="BackgroundImageFix" result="shape"/>
<feGaussianBlur stdDeviation="5.88235" result="effect1_foregroundBlur_8704_17481"/>
</filter>
<linearGradient id="paint0_linear_8704_17481" x1="32" y1="154.836" x2="32" y2="206.791" gradientUnits="userSpaceOnUse">
<stop stop-color="#F65366"/>
<stop offset="0.200673" stop-color="#F87168"/>
<stop offset="0.409695" stop-color="#FB9568"/>
<stop offset="0.708035" stop-color="#FEC96A"/>
<stop offset="1" stop-color="#FFDB6B"/>
</linearGradient>
<clipPath id="clip0_8704_17481">
<rect width="28.5849" height="26.6609" fill="white" transform="matrix(0.804684 -0.593703 -0.62562 -0.780128 129.662 67.5156)"/>
</clipPath>
</defs>
</svg>
