<svg width="117" height="330" viewBox="0 0 117 330" fill="none" xmlns="http://www.w3.org/2000/svg">
<g filter="url(#filter0_dd_8705_17482)">
<path d="M53.5762 72.9211C46.3425 73.204 39.6961 70.4335 34.8768 65.7576L25.681 66.1172L29.4701 58.1284C28.1085 55.1734 27.293 51.9064 27.1581 48.4519C26.6088 34.3889 37.5461 22.5434 51.5871 21.9943C65.6282 21.4451 77.456 32.4004 78.0053 46.4634C78.5546 60.5265 67.6173 72.372 53.5762 72.9211Z" fill="white"/>
</g>
<g clip-path="url(#clip0_8705_17482)">
<path d="M60.6547 46.2096L60.892 57.866L65.167 57.7791C65.4073 57.7742 65.5981 57.5755 65.5932 57.3353L65.3736 46.5487C65.3687 46.3085 65.1699 46.1177 64.9297 46.1226L60.6547 46.2096Z" fill="#04A85B"/>
<path d="M38.3122 45.4778L38.3333 46.5102C38.35 47.3319 39.0298 47.9844 39.8516 47.9677L40.6972 47.9505C39.9827 48.0162 39.4286 48.6231 39.4434 49.3519L39.4669 50.5051C39.4824 51.2675 40.1132 51.8729 40.8757 51.8574L42.0593 51.8334C41.3706 51.8474 40.8241 52.4164 40.8382 53.1049L40.8584 54.0987C40.8724 54.787 41.4419 55.3336 42.1303 55.3196L43.2769 55.2963C42.5882 55.3103 42.0418 55.8802 42.0558 56.5687L42.0709 57.3109C42.0849 57.9986 42.6541 58.5458 43.3428 58.5318L60.0902 58.1912L59.8449 46.1405C57.9113 46.1799 56.353 46.0169 55.1005 45.7051C51.0916 44.7102 50.2106 42.2035 50.1656 39.9903C50.1423 38.8464 50.0827 35.917 50.0827 35.917C50.0773 35.6528 49.965 35.4151 49.7887 35.245C49.6115 35.075 49.3703 34.9725 49.1052 34.9779C47.399 35.0126 46.0448 36.4228 46.0795 38.1278L46.1607 42.1181C46.1799 43.0625 45.4297 43.8436 44.4851 43.8629L39.7709 43.9587C38.9486 43.9757 38.2955 44.6557 38.3122 45.4778Z" fill="#FFC197"/>
<path d="M57.2048 59.3386L62.3151 59.2346C62.5554 59.2297 62.7462 59.031 62.7413 58.7908L62.4649 45.2113C62.46 44.9711 62.2613 44.7803 62.021 44.7852L56.9107 44.8891C56.6704 44.894 56.4797 45.0928 56.4845 45.333L56.761 58.9125C56.7658 59.1527 56.9646 59.3435 57.2048 59.3386Z" fill="#04A85B"/>
</g>
<path d="M46.68 316.394C55.8575 323.761 68.7098 321.887 75.3864 312.207C82.063 302.527 80.0356 288.708 70.8581 281.34C61.6806 273.973 48.8283 275.847 42.1517 285.527C35.4751 295.206 37.5025 309.026 46.68 316.394Z" fill="#FFDA6A"/>
<g filter="url(#filter1_f_8705_17482)">
<path d="M46.8341 294.763C48.4657 296.073 50.7505 295.74 51.9375 294.019C53.1244 292.298 52.764 289.841 51.1324 288.531C49.5009 287.221 47.216 287.555 46.0291 289.276C44.8421 290.996 45.2025 293.453 46.8341 294.763Z" fill="#F55065"/>
</g>
<g filter="url(#filter2_f_8705_17482)">
<path d="M67.567 303.413C69.1986 304.723 71.4834 304.389 72.6704 302.669C73.8573 300.948 73.4969 298.491 71.8653 297.181C70.2338 295.871 67.9489 296.205 66.762 297.925C65.575 299.646 65.9355 302.103 67.567 303.413Z" fill="#F55065"/>
</g>
<path fill-rule="evenodd" clip-rule="evenodd" d="M59.0659 289.162C60.0017 286.104 58.4305 282.758 55.5566 281.689C52.6827 280.62 49.5944 282.231 48.6586 285.289C48.5027 285.799 48.7645 286.357 49.2435 286.535C49.7225 286.713 50.2372 286.444 50.3932 285.935C51.017 283.896 53.0759 282.822 54.9918 283.534C56.9078 284.247 57.9552 286.478 57.3314 288.516C57.1754 289.026 57.4373 289.584 57.9163 289.762C58.3953 289.94 58.91 289.671 59.0659 289.162ZM73.5498 294.746C74.4856 291.688 72.9144 288.342 70.0405 287.273C67.1666 286.203 64.0783 287.815 63.1425 290.873C62.9866 291.383 63.2484 291.94 63.7274 292.118C64.2064 292.297 64.7211 292.028 64.8771 291.518C65.5009 289.48 67.5598 288.405 69.4757 289.118C71.3917 289.831 72.4391 292.062 71.8153 294.1C71.6593 294.61 71.9212 295.167 72.4002 295.346C72.8791 295.524 73.3939 295.255 73.5498 294.746ZM50.3952 293.805C50.1999 295.055 51.9373 298.138 54.1077 300.021C57.2195 302.721 61.1524 303.391 65.6298 301.242C66.0858 301.024 66.2819 300.446 66.0678 299.953C65.8537 299.459 65.3105 299.236 64.8545 299.455C61.0168 301.297 57.8182 300.752 55.2367 298.512C54.2725 297.676 53.4538 296.638 52.8563 295.578C52.6167 295.153 52.4284 294.749 52.3093 294.419C52.2604 294.284 52.2267 294.17 52.2096 294.089C52.2063 294.073 52.2074 294.086 52.1945 294.169C52.2774 293.638 51.9418 293.127 51.4449 293.027C50.9481 292.926 50.4781 293.275 50.3952 293.805Z" fill="black"/>
<path d="M46.307 141.32C57.9625 146.233 70.7105 140.495 74.7805 128.504C78.8504 116.513 72.7011 102.809 61.0456 97.8961C49.3901 92.9829 36.6421 98.7208 32.5721 110.712C28.5022 122.703 34.6515 136.407 46.307 141.32Z" fill="#FFDA6A"/>
<path fill-rule="evenodd" clip-rule="evenodd" d="M47.7496 137.046C51.1307 138.471 55.1968 135.723 56.8315 130.908C58.4663 126.093 57.0506 121.035 53.6695 119.61C50.2884 118.185 46.2222 120.933 44.5875 125.748C42.9528 130.563 44.3685 135.621 47.7496 137.046ZM43.574 114.513C45.1192 115.506 47.3655 114.506 48.5911 112.28C49.8167 110.054 49.5575 107.444 48.0123 106.452C46.467 105.459 44.2208 106.459 42.9952 108.685C41.7695 110.911 42.0287 113.52 43.574 114.513ZM64.4472 123.309C62.699 122.914 61.609 120.509 62.0126 117.936C62.4162 115.363 64.1607 113.598 65.9089 113.993C67.6571 114.388 68.7472 116.794 68.3435 119.367C67.9399 121.939 66.1955 123.704 64.4472 123.309ZM46.9035 100.349C46.927 100.335 46.994 100.3 47.0991 100.255C47.2859 100.176 47.5013 100.107 47.7399 100.058C48.969 99.8038 50.2464 100.146 51.5101 101.427C51.815 101.736 52.2883 101.74 52.5672 101.436C52.8461 101.132 52.825 100.635 52.52 100.326C50.8644 98.6475 49.0694 98.1667 47.3769 98.5162C46.8039 98.6346 46.3708 98.8183 46.1085 98.9761C45.7584 99.1867 45.6526 99.6647 45.8721 100.044C46.0917 100.423 46.5534 100.559 46.9035 100.349ZM71.7768 109.793C71.6739 109.481 71.4584 109.024 71.0991 108.513C70.0379 107.003 68.4066 106.04 66.1683 106.078C65.7561 106.085 65.4449 106.442 65.4734 106.875C65.5019 107.309 65.8592 107.655 66.2714 107.648C67.9798 107.619 69.1407 108.304 69.9113 109.401C70.0609 109.614 70.1813 109.824 70.2743 110.021C70.3266 110.132 70.3563 110.208 70.3655 110.236C70.5028 110.652 70.9301 110.89 71.3198 110.767C71.7095 110.645 71.9142 110.209 71.7768 109.793Z" fill="black"/>
<path d="M90.6669 227.878C104.491 221.146 111.066 204.118 105.351 189.845C99.6361 175.571 83.7965 169.457 69.9722 176.188C56.1478 182.92 49.5736 199.948 55.2883 214.222C61.003 228.495 76.8426 234.609 90.6669 227.878Z" fill="#FFDA6A"/>
<path fill-rule="evenodd" clip-rule="evenodd" d="M71.6678 212.551C73.3508 211.732 74.1005 209.533 73.3421 207.64C72.5838 205.746 70.6046 204.875 68.9216 205.695C67.2385 206.514 66.4889 208.713 67.2473 210.606C68.0056 212.5 69.9848 213.371 71.6678 212.551ZM93.2768 202.033C94.9598 201.214 95.7094 199.015 94.9511 197.121C94.1927 195.228 92.2136 194.357 90.5305 195.176C88.8475 195.995 88.0979 198.194 88.8562 200.088C89.6146 201.981 91.5937 202.852 93.2768 202.033ZM93.9277 213.21C91.2352 211.221 87.6888 210.898 84.532 212.435C81.3637 213.977 79.168 217.114 78.679 220.629C78.5823 221.323 79.035 221.941 79.6901 222.009C80.3451 222.077 80.9545 221.568 81.0512 220.874C81.4183 218.236 83.0679 215.879 85.4474 214.72C87.8139 213.568 90.4662 213.81 92.4879 215.303C93.0174 215.694 93.769 215.543 94.1666 214.964C94.5641 214.386 94.4572 213.601 93.9277 213.21ZM65.2753 206.032C65.2791 205.976 65.2977 205.831 65.3407 205.621C65.4158 205.253 65.5333 204.861 65.7006 204.469C66.2665 203.143 67.2336 202.15 68.7723 201.657C69.414 201.451 69.8014 200.744 69.6377 200.077C69.474 199.41 68.8212 199.036 68.1796 199.241C65.8904 199.975 64.3728 201.534 63.5217 203.528C63.1017 204.513 62.9239 205.383 62.8836 205.974C62.836 206.672 63.3328 207.251 63.9933 207.266C64.6537 207.282 65.2277 206.729 65.2753 206.032ZM94.786 190.446C94.3627 190.08 93.6593 189.638 92.7165 189.318C90.8064 188.668 88.7388 188.853 86.7047 190.224C86.1346 190.608 85.9455 191.392 86.2822 191.975C86.619 192.557 87.3542 192.718 87.9244 192.334C89.2916 191.413 90.6092 191.294 91.8792 191.727C92.2547 191.854 92.5963 192.022 92.8938 192.209C93.0636 192.316 93.1732 192.398 93.2131 192.433C93.7129 192.864 94.4702 192.769 94.9045 192.22C95.3389 191.671 95.2858 190.877 94.786 190.446Z" fill="black"/>
<path fill-rule="evenodd" clip-rule="evenodd" d="M104.95 221.28C107.048 220.26 108.044 217.675 107.174 215.506C106.341 213.427 99.2961 207.177 99.2961 207.177C99.2961 207.177 98.7437 217.121 99.5771 219.2C100.447 221.369 102.852 222.301 104.95 221.28Z" fill="#558DFF"/>
<defs>
<filter id="filter0_dd_8705_17482" x="0.681152" y="0.974609" width="102.344" height="100.966" filterUnits="userSpaceOnUse" color-interpolation-filters="sRGB">
<feFlood flood-opacity="0" result="BackgroundImageFix"/>
<feColorMatrix in="SourceAlpha" type="matrix" values="0 0 0 0 0 0 0 0 0 0 0 0 0 0 0 0 0 0 127 0" result="hardAlpha"/>
<feOffset dy="8"/>
<feGaussianBlur stdDeviation="5"/>
<feColorMatrix type="matrix" values="0 0 0 0 0 0 0 0 0 0 0 0 0 0 0 0 0 0 0.2 0"/>
<feBlend mode="normal" in2="BackgroundImageFix" result="effect1_dropShadow_8705_17482"/>
<feColorMatrix in="SourceAlpha" type="matrix" values="0 0 0 0 0 0 0 0 0 0 0 0 0 0 0 0 0 0 127 0" result="hardAlpha"/>
<feOffset dy="4"/>
<feGaussianBlur stdDeviation="12.5"/>
<feColorMatrix type="matrix" values="0 0 0 0 0 0 0 0 0 0 0 0 0 0 0 0 0 0 0.12 0"/>
<feBlend mode="normal" in2="effect1_dropShadow_8705_17482" result="effect2_dropShadow_8705_17482"/>
<feBlend mode="normal" in="SourceGraphic" in2="effect2_dropShadow_8705_17482" result="shape"/>
</filter>
<filter id="filter1_f_8705_17482" x="33.5649" y="275.966" width="30.8365" height="31.3614" filterUnits="userSpaceOnUse" color-interpolation-filters="sRGB">
<feFlood flood-opacity="0" result="BackgroundImageFix"/>
<feBlend mode="normal" in="SourceGraphic" in2="BackgroundImageFix" result="shape"/>
<feGaussianBlur stdDeviation="5.88235" result="effect1_foregroundBlur_8705_17482"/>
</filter>
<filter id="filter2_f_8705_17482" x="54.2978" y="284.616" width="30.8365" height="31.3614" filterUnits="userSpaceOnUse" color-interpolation-filters="sRGB">
<feFlood flood-opacity="0" result="BackgroundImageFix"/>
<feBlend mode="normal" in="SourceGraphic" in2="BackgroundImageFix" result="shape"/>
<feGaussianBlur stdDeviation="5.88235" result="effect1_foregroundBlur_8705_17482"/>
</filter>
<clipPath id="clip0_8705_17482">
<rect width="27.0345" height="27.0287" fill="white" transform="matrix(-0.999793 0.0203336 0.0203514 0.999793 65.106 33.3979)"/>
</clipPath>
</defs>
</svg>
