<svg xmlns="http://www.w3.org/2000/svg" fill="none" viewBox="496.26 25.5 401.23 64.58">
<mask id="path-1-outside-1_7059_17903" maskUnits="userSpaceOnUse" x="496" y="34" width="402" height="57" fill="black">
<rect fill="white" x="496" y="34" width="402" height="57"/>
<path d="M530.254 80.312C531.47 80.312 532.558 80.1627 533.518 79.864C534.499 79.5867 535.289 79.288 535.886 78.968C536.483 78.648 536.825 78.4347 536.91 78.328L540.142 84.6C539.502 85.6667 538.339 86.68 536.654 87.64C534.99 88.6 532.878 89.08 530.318 89.08C528.739 89.08 527.395 88.8987 526.286 88.536C525.198 88.1733 524.185 87.7467 523.246 87.256C522.307 86.7867 521.283 86.3707 520.174 86.008C519.086 85.6453 517.742 85.464 516.142 85.464C514.841 85.464 513.689 85.656 512.686 86.04C511.683 86.4453 510.894 86.8507 510.318 87.256C509.763 87.6613 509.465 87.9067 509.422 87.992L505.518 83.384C506.819 81.8693 508.558 80.6213 510.734 79.64C512.91 78.68 515.385 78.2 518.158 78.2C519.929 78.2 521.465 78.3813 522.766 78.744C524.067 79.0853 525.294 79.4267 526.446 79.768C527.619 80.1307 528.889 80.312 530.254 80.312ZM507.214 57.848C507.214 60.2587 507.705 62.4453 508.686 64.408C509.689 66.3493 511.065 67.896 512.814 69.048C514.585 70.2 516.633 70.776 518.958 70.776C521.283 70.776 523.321 70.2 525.07 69.048C526.841 67.896 528.217 66.3493 529.198 64.408C530.201 62.4453 530.702 60.2587 530.702 57.848C530.702 55.4373 530.201 53.2613 529.198 51.32C528.217 49.3787 526.841 47.832 525.07 46.68C523.321 45.5067 521.283 44.92 518.958 44.92C516.633 44.92 514.585 45.5067 512.814 46.68C511.065 47.832 509.689 49.3787 508.686 51.32C507.705 53.2613 507.214 55.4373 507.214 57.848ZM497.262 57.848C497.262 54.776 497.806 51.9173 498.894 49.272C499.982 46.6053 501.507 44.28 503.47 42.296C505.433 40.312 507.737 38.7653 510.382 37.656C513.027 36.5467 515.886 35.992 518.958 35.992C522.073 35.992 524.942 36.5467 527.566 37.656C530.211 38.7653 532.505 40.312 534.446 42.296C536.409 44.28 537.923 46.6053 538.99 49.272C540.078 51.9173 540.622 54.776 540.622 57.848C540.622 60.9413 540.099 63.8213 539.054 66.488C538.009 69.1333 536.515 71.4587 534.574 73.464C532.633 75.448 530.339 76.9947 527.694 78.104C525.049 79.2133 522.137 79.768 518.958 79.768C515.715 79.768 512.761 79.2133 510.094 78.104C507.449 76.9947 505.166 75.448 503.246 73.464C501.326 71.4587 499.843 69.1333 498.798 66.488C497.774 63.8213 497.262 60.9413 497.262 57.848ZM573.932 36.76H583.5V62.712C583.5 66.1893 582.817 69.208 581.452 71.768C580.087 74.3067 578.135 76.28 575.596 77.688C573.057 79.0747 570.028 79.768 566.508 79.768C562.967 79.768 559.916 79.0747 557.356 77.688C554.796 76.28 552.833 74.3067 551.468 71.768C550.124 69.208 549.452 66.1893 549.452 62.712V36.76H558.988V62.2C558.988 64.12 559.287 65.7413 559.884 67.064C560.503 68.3867 561.377 69.3893 562.508 70.072C563.639 70.7333 564.972 71.064 566.508 71.064C568.023 71.064 569.335 70.7333 570.444 70.072C571.553 69.3893 572.407 68.3867 573.004 67.064C573.623 65.7413 573.932 64.12 573.932 62.2V36.76ZM603.034 57.848C603.034 60.2587 603.525 62.4453 604.506 64.408C605.509 66.3493 606.885 67.896 608.634 69.048C610.405 70.2 612.453 70.776 614.778 70.776C617.103 70.776 619.141 70.2 620.89 69.048C622.661 67.896 624.037 66.3493 625.018 64.408C626.021 62.4453 626.522 60.2587 626.522 57.848C626.522 55.4373 626.021 53.2613 625.018 51.32C624.037 49.3787 622.661 47.832 620.89 46.68C619.141 45.5067 617.103 44.92 614.778 44.92C612.453 44.92 610.405 45.5067 608.634 46.68C606.885 47.832 605.509 49.3787 604.506 51.32C603.525 53.2613 603.034 55.4373 603.034 57.848ZM593.082 57.848C593.082 54.776 593.626 51.9173 594.714 49.272C595.802 46.6053 597.327 44.28 599.29 42.296C601.253 40.312 603.557 38.7653 606.202 37.656C608.847 36.5467 611.706 35.992 614.778 35.992C617.893 35.992 620.762 36.5467 623.386 37.656C626.031 38.7653 628.325 40.312 630.266 42.296C632.229 44.28 633.743 46.6053 634.81 49.272C635.898 51.9173 636.442 54.776 636.442 57.848C636.442 60.9413 635.919 63.8213 634.874 66.488C633.829 69.1333 632.335 71.4587 630.394 73.464C628.453 75.448 626.159 76.9947 623.514 78.104C620.869 79.2133 617.957 79.768 614.778 79.768C611.535 79.768 608.581 79.2133 605.914 78.104C603.269 76.9947 600.986 75.448 599.066 73.464C597.146 71.4587 595.663 69.1333 594.618 66.488C593.594 63.8213 593.082 60.9413 593.082 57.848ZM652.333 45.144H642.253V36.76H671.949V45.144H661.901V79H652.333V45.144ZM681.246 36.76H708.222V45.144H690.782V53.752H708.062V61.88H690.782V70.616H708.222V79H681.246V36.76ZM726.154 79.768C724.575 79.768 723.21 79.2027 722.058 78.072C720.927 76.92 720.362 75.5547 720.362 73.976C720.362 72.3547 720.927 70.9787 722.058 69.848C723.21 68.696 724.575 68.12 726.154 68.12C727.775 68.12 729.151 68.696 730.282 69.848C731.412 70.9787 731.978 72.3547 731.978 73.976C731.978 75.5547 731.412 76.92 730.282 78.072C729.151 79.2027 727.775 79.768 726.154 79.768ZM766.615 79H755.799L740.759 36.76H751.543L761.207 66.808L770.871 36.76H781.655L766.615 79ZM840.606 45.144H830.526V36.76H860.222V45.144H850.174V79H840.606V45.144ZM869.519 36.76H896.495V45.144H879.055V53.752H896.335V61.88H879.055V70.616H896.495V79H869.519V36.76Z"/>
</mask>
<path d="M530.254 80.312C531.47 80.312 532.558 80.1627 533.518 79.864C534.499 79.5867 535.289 79.288 535.886 78.968C536.483 78.648 536.825 78.4347 536.91 78.328L540.142 84.6C539.502 85.6667 538.339 86.68 536.654 87.64C534.99 88.6 532.878 89.08 530.318 89.08C528.739 89.08 527.395 88.8987 526.286 88.536C525.198 88.1733 524.185 87.7467 523.246 87.256C522.307 86.7867 521.283 86.3707 520.174 86.008C519.086 85.6453 517.742 85.464 516.142 85.464C514.841 85.464 513.689 85.656 512.686 86.04C511.683 86.4453 510.894 86.8507 510.318 87.256C509.763 87.6613 509.465 87.9067 509.422 87.992L505.518 83.384C506.819 81.8693 508.558 80.6213 510.734 79.64C512.91 78.68 515.385 78.2 518.158 78.2C519.929 78.2 521.465 78.3813 522.766 78.744C524.067 79.0853 525.294 79.4267 526.446 79.768C527.619 80.1307 528.889 80.312 530.254 80.312ZM507.214 57.848C507.214 60.2587 507.705 62.4453 508.686 64.408C509.689 66.3493 511.065 67.896 512.814 69.048C514.585 70.2 516.633 70.776 518.958 70.776C521.283 70.776 523.321 70.2 525.07 69.048C526.841 67.896 528.217 66.3493 529.198 64.408C530.201 62.4453 530.702 60.2587 530.702 57.848C530.702 55.4373 530.201 53.2613 529.198 51.32C528.217 49.3787 526.841 47.832 525.07 46.68C523.321 45.5067 521.283 44.92 518.958 44.92C516.633 44.92 514.585 45.5067 512.814 46.68C511.065 47.832 509.689 49.3787 508.686 51.32C507.705 53.2613 507.214 55.4373 507.214 57.848ZM497.262 57.848C497.262 54.776 497.806 51.9173 498.894 49.272C499.982 46.6053 501.507 44.28 503.47 42.296C505.433 40.312 507.737 38.7653 510.382 37.656C513.027 36.5467 515.886 35.992 518.958 35.992C522.073 35.992 524.942 36.5467 527.566 37.656C530.211 38.7653 532.505 40.312 534.446 42.296C536.409 44.28 537.923 46.6053 538.99 49.272C540.078 51.9173 540.622 54.776 540.622 57.848C540.622 60.9413 540.099 63.8213 539.054 66.488C538.009 69.1333 536.515 71.4587 534.574 73.464C532.633 75.448 530.339 76.9947 527.694 78.104C525.049 79.2133 522.137 79.768 518.958 79.768C515.715 79.768 512.761 79.2133 510.094 78.104C507.449 76.9947 505.166 75.448 503.246 73.464C501.326 71.4587 499.843 69.1333 498.798 66.488C497.774 63.8213 497.262 60.9413 497.262 57.848ZM573.932 36.76H583.5V62.712C583.5 66.1893 582.817 69.208 581.452 71.768C580.087 74.3067 578.135 76.28 575.596 77.688C573.057 79.0747 570.028 79.768 566.508 79.768C562.967 79.768 559.916 79.0747 557.356 77.688C554.796 76.28 552.833 74.3067 551.468 71.768C550.124 69.208 549.452 66.1893 549.452 62.712V36.76H558.988V62.2C558.988 64.12 559.287 65.7413 559.884 67.064C560.503 68.3867 561.377 69.3893 562.508 70.072C563.639 70.7333 564.972 71.064 566.508 71.064C568.023 71.064 569.335 70.7333 570.444 70.072C571.553 69.3893 572.407 68.3867 573.004 67.064C573.623 65.7413 573.932 64.12 573.932 62.2V36.76ZM603.034 57.848C603.034 60.2587 603.525 62.4453 604.506 64.408C605.509 66.3493 606.885 67.896 608.634 69.048C610.405 70.2 612.453 70.776 614.778 70.776C617.103 70.776 619.141 70.2 620.89 69.048C622.661 67.896 624.037 66.3493 625.018 64.408C626.021 62.4453 626.522 60.2587 626.522 57.848C626.522 55.4373 626.021 53.2613 625.018 51.32C624.037 49.3787 622.661 47.832 620.89 46.68C619.141 45.5067 617.103 44.92 614.778 44.92C612.453 44.92 610.405 45.5067 608.634 46.68C606.885 47.832 605.509 49.3787 604.506 51.32C603.525 53.2613 603.034 55.4373 603.034 57.848ZM593.082 57.848C593.082 54.776 593.626 51.9173 594.714 49.272C595.802 46.6053 597.327 44.28 599.29 42.296C601.253 40.312 603.557 38.7653 606.202 37.656C608.847 36.5467 611.706 35.992 614.778 35.992C617.893 35.992 620.762 36.5467 623.386 37.656C626.031 38.7653 628.325 40.312 630.266 42.296C632.229 44.28 633.743 46.6053 634.81 49.272C635.898 51.9173 636.442 54.776 636.442 57.848C636.442 60.9413 635.919 63.8213 634.874 66.488C633.829 69.1333 632.335 71.4587 630.394 73.464C628.453 75.448 626.159 76.9947 623.514 78.104C620.869 79.2133 617.957 79.768 614.778 79.768C611.535 79.768 608.581 79.2133 605.914 78.104C603.269 76.9947 600.986 75.448 599.066 73.464C597.146 71.4587 595.663 69.1333 594.618 66.488C593.594 63.8213 593.082 60.9413 593.082 57.848ZM652.333 45.144H642.253V36.76H671.949V45.144H661.901V79H652.333V45.144ZM681.246 36.76H708.222V45.144H690.782V53.752H708.062V61.88H690.782V70.616H708.222V79H681.246V36.76ZM726.154 79.768C724.575 79.768 723.21 79.2027 722.058 78.072C720.927 76.92 720.362 75.5547 720.362 73.976C720.362 72.3547 720.927 70.9787 722.058 69.848C723.21 68.696 724.575 68.12 726.154 68.12C727.775 68.12 729.151 68.696 730.282 69.848C731.412 70.9787 731.978 72.3547 731.978 73.976C731.978 75.5547 731.412 76.92 730.282 78.072C729.151 79.2027 727.775 79.768 726.154 79.768ZM766.615 79H755.799L740.759 36.76H751.543L761.207 66.808L770.871 36.76H781.655L766.615 79ZM840.606 45.144H830.526V36.76H860.222V45.144H850.174V79H840.606V45.144ZM869.519 36.76H896.495V45.144H879.055V53.752H896.335V61.88H879.055V70.616H896.495V79H869.519V36.76Z" fill="white"/>
<path d="M533.518 79.864L533.246 78.9017L533.233 78.9053L533.221 78.9091L533.518 79.864ZM535.886 78.968L536.358 79.8495L535.886 78.968ZM536.91 78.328L537.799 77.8699L537.093 76.4991L536.129 77.7033L536.91 78.328ZM540.142 84.6L541 85.1145L541.286 84.637L541.031 84.1419L540.142 84.6ZM536.654 87.64L536.159 86.7711L536.154 86.7738L536.654 87.64ZM526.286 88.536L525.97 89.4847L525.975 89.4865L526.286 88.536ZM523.246 87.256L523.709 86.3698L523.701 86.3656L523.693 86.3616L523.246 87.256ZM520.174 86.008L519.858 86.9567L519.863 86.9585L520.174 86.008ZM512.686 86.04L512.328 85.1061L512.32 85.1094L512.311 85.1129L512.686 86.04ZM510.318 87.256L509.742 86.4382L509.735 86.4433L509.728 86.4486L510.318 87.256ZM509.422 87.992L508.659 88.6384L509.639 89.7947L510.316 88.4392L509.422 87.992ZM505.518 83.384L504.76 82.7323L504.204 83.3795L504.755 84.0304L505.518 83.384ZM510.734 79.64L510.33 78.7251L510.323 78.7284L510.734 79.64ZM522.766 78.744L522.498 79.7073L522.505 79.7093L522.512 79.7113L522.766 78.744ZM526.446 79.768L526.741 78.8125L526.73 78.8092L526.446 79.768ZM508.686 64.408L507.792 64.8553L507.798 64.8669L508.686 64.408ZM512.814 69.048L512.264 69.8832L512.269 69.8862L512.814 69.048ZM525.07 69.048L524.525 68.2098L524.52 68.2128L525.07 69.048ZM529.198 64.408L528.307 63.9531L528.306 63.9569L529.198 64.408ZM529.198 51.32L528.306 51.7711L528.31 51.7789L529.198 51.32ZM525.07 46.68L524.513 47.5106L524.525 47.5182L525.07 46.68ZM512.814 46.68L513.364 47.5152L513.366 47.5136L512.814 46.68ZM508.686 51.32L507.797 50.8611L507.794 50.8689L508.686 51.32ZM498.894 49.272L499.819 49.6524L499.82 49.6498L498.894 49.272ZM503.47 42.296L502.759 41.5927V41.5927L503.47 42.296ZM527.566 37.656L527.177 38.5771L527.179 38.5782L527.566 37.656ZM534.446 42.296L533.731 42.9954L533.735 42.9993L534.446 42.296ZM538.99 49.272L538.061 49.6434L538.065 49.6524L538.99 49.272ZM539.054 66.488L539.984 66.8555L539.985 66.853L539.054 66.488ZM534.574 73.464L535.289 74.1634L535.292 74.1595L534.574 73.464ZM527.694 78.104L528.081 79.0262L527.694 78.104ZM510.094 78.104L509.707 79.0262L509.71 79.0273L510.094 78.104ZM503.246 73.464L502.524 74.1556L502.527 74.1594L503.246 73.464ZM498.798 66.488L497.864 66.8465L497.868 66.8555L498.798 66.488ZM530.254 80.312V81.312C531.55 81.312 532.741 81.1529 533.815 80.8189L533.518 79.864L533.221 78.9091C532.375 79.1724 531.39 79.312 530.254 79.312V80.312ZM533.518 79.864L533.79 80.8263C534.81 80.5381 535.674 80.216 536.358 79.8495L535.886 78.968L535.414 78.0865C534.903 78.36 534.189 78.6352 533.246 78.9017L533.518 79.864ZM535.886 78.968L536.358 79.8495C536.665 79.685 536.922 79.5397 537.12 79.416C537.219 79.3544 537.314 79.2912 537.398 79.228C537.468 79.1757 537.588 79.0812 537.691 78.9527L536.91 78.328L536.129 77.7033C536.189 77.6281 536.235 77.6003 536.198 77.628C536.176 77.6448 536.132 77.6749 536.06 77.72C535.917 77.8096 535.704 77.931 535.414 78.0865L535.886 78.968ZM536.91 78.328L536.021 78.7861L539.253 85.0581L540.142 84.6L541.031 84.1419L537.799 77.8699L536.91 78.328ZM540.142 84.6L539.285 84.0855C538.769 84.9447 537.771 85.8529 536.159 86.7711L536.654 87.64L537.149 88.5089C538.908 87.5071 540.235 86.3887 541 85.1145L540.142 84.6ZM536.654 87.64L536.154 86.7738C534.685 87.6217 532.759 88.08 530.318 88.08V89.08V90.08C532.997 90.08 535.295 89.5783 537.154 88.5062L536.654 87.64ZM530.318 89.08V88.08C528.81 88.08 527.577 87.9061 526.597 87.5855L526.286 88.536L525.975 89.4865C527.213 89.8912 528.668 90.08 530.318 90.08V89.08ZM526.286 88.536L526.602 87.5873C525.561 87.2401 524.597 86.8338 523.709 86.3698L523.246 87.256L522.783 88.1422C523.772 88.6595 524.835 89.1065 525.97 89.4847L526.286 88.536ZM523.246 87.256L523.693 86.3616C522.706 85.8679 521.636 85.4338 520.485 85.0575L520.174 86.008L519.863 86.9585C520.931 87.3075 521.909 87.7054 522.799 88.1504L523.246 87.256ZM520.174 86.008L520.49 85.0593C519.269 84.6522 517.81 84.464 516.142 84.464V85.464V86.464C517.674 86.464 518.903 86.6385 519.858 86.9567L520.174 86.008ZM516.142 85.464V84.464C514.744 84.464 513.467 84.6702 512.328 85.1061L512.686 86.04L513.044 86.9739C513.911 86.6418 514.938 86.464 516.142 86.464V85.464ZM512.686 86.04L512.311 85.1129C511.271 85.5334 510.405 85.9721 509.742 86.4382L510.318 87.256L510.893 88.0738C511.383 87.7292 512.096 87.3573 513.061 86.9671L512.686 86.04ZM510.318 87.256L509.728 86.4486C509.445 86.6553 509.214 86.8309 509.043 86.9713C508.959 87.0407 508.877 87.1115 508.806 87.1798C508.768 87.2167 508.623 87.3535 508.528 87.5448L509.422 87.992L510.316 88.4392C510.269 88.5342 510.219 88.5923 510.212 88.6006C510.197 88.6174 510.19 88.6235 510.198 88.6162C510.213 88.6019 510.248 88.57 510.313 88.5167C510.44 88.4118 510.636 88.262 510.908 88.0634L510.318 87.256ZM509.422 87.992L510.185 87.3456L506.281 82.7376L505.518 83.384L504.755 84.0304L508.659 88.6384L509.422 87.992ZM505.518 83.384L506.276 84.0357C507.466 82.6516 509.077 81.4843 511.145 80.5516L510.734 79.64L510.323 78.7284C508.039 79.7583 506.173 81.0871 504.76 82.7323L505.518 83.384ZM510.734 79.64L511.138 80.5549C513.167 79.6596 515.501 79.2 518.158 79.2V78.2V77.2C515.269 77.2 512.653 77.7004 510.33 78.7251L510.734 79.64ZM518.158 78.2V79.2C519.864 79.2 521.306 79.3752 522.498 79.7073L522.766 78.744L523.034 77.7807C521.623 77.3875 519.993 77.2 518.158 77.2V78.2ZM522.766 78.744L522.512 79.7113C523.805 80.0503 525.021 80.3888 526.162 80.7268L526.446 79.768L526.73 78.8092C525.567 78.4646 524.33 78.1204 523.02 77.7767L522.766 78.744ZM526.446 79.768L526.151 80.7234C527.43 81.1187 528.8 81.312 530.254 81.312V80.312V79.312C528.978 79.312 527.809 79.1426 526.741 78.8126L526.446 79.768ZM507.214 57.848H506.214C506.214 60.3984 506.734 62.7404 507.792 64.8552L508.686 64.408L509.58 63.9608C508.675 62.1502 508.214 60.119 508.214 57.848H507.214ZM508.686 64.408L507.798 64.8669C508.875 66.9538 510.365 68.6327 512.264 69.8832L512.814 69.048L513.364 68.2128C511.764 67.1593 510.502 65.7449 509.575 63.9491L508.686 64.408ZM512.814 69.048L512.269 69.8862C514.218 71.1543 516.459 71.776 518.958 71.776V70.776V69.776C516.806 69.776 514.952 69.2457 513.359 68.2098L512.814 69.048ZM518.958 70.776V71.776C521.456 71.776 523.69 71.1544 525.62 69.8832L525.07 69.048L524.52 68.2128C522.952 69.2456 521.11 69.776 518.958 69.776V70.776ZM525.07 69.048L525.615 69.8862C527.538 68.6351 529.032 66.9529 530.09 64.8591L529.198 64.408L528.306 63.9569C527.401 65.7457 526.143 67.1569 524.525 68.2098L525.07 69.048ZM529.198 64.408L530.089 64.8629C531.17 62.7465 531.702 60.4017 531.702 57.848H530.702H529.702C529.702 60.1156 529.232 62.1441 528.307 63.9531L529.198 64.408ZM530.702 57.848H531.702C531.702 55.2944 531.17 52.9585 530.086 50.8611L529.198 51.32L528.31 51.7789C529.232 53.5642 529.702 55.5802 529.702 57.848H530.702ZM529.198 51.32L530.09 50.8689C529.032 48.7751 527.538 47.0929 525.615 45.8418L525.07 46.68L524.525 47.5182C526.143 48.5711 527.401 49.9823 528.306 51.7711L529.198 51.32ZM525.07 46.68L525.627 45.8495C523.696 44.5543 521.46 43.92 518.958 43.92V44.92V45.92C521.106 45.92 522.945 46.459 524.513 47.5105L525.07 46.68ZM518.958 44.92V43.92C516.456 43.92 514.212 44.5543 512.262 45.8464L512.814 46.68L513.366 47.5136C514.958 46.459 516.81 45.92 518.958 45.92V44.92ZM512.814 46.68L512.264 45.8448C510.365 47.0953 508.875 48.7742 507.798 50.8611L508.686 51.32L509.575 51.7789C510.502 49.9831 511.764 48.5687 513.364 47.5152L512.814 46.68ZM508.686 51.32L507.794 50.8689C506.734 52.9647 506.214 55.2978 506.214 57.848H507.214H508.214C508.214 55.5769 508.675 53.558 509.578 51.7711L508.686 51.32ZM497.262 57.848H498.262C498.262 54.8967 498.784 52.1683 499.819 49.6524L498.894 49.272L497.969 48.8916C496.828 51.6663 496.262 54.6553 496.262 57.848H497.262ZM498.894 49.272L499.82 49.6498C500.86 47.1007 502.314 44.8869 504.181 42.9993L503.47 42.296L502.759 41.5927C500.701 43.6731 499.104 46.11 497.968 48.8942L498.894 49.272ZM503.47 42.296L504.181 42.9993C506.048 41.1115 508.241 39.6381 510.769 38.5782L510.382 37.656L509.995 36.7338C507.232 37.8926 504.817 39.5125 502.759 41.5927L503.47 42.296ZM510.382 37.656L510.769 38.5782C513.283 37.5238 516.009 36.992 518.958 36.992V35.992V34.992C515.763 34.992 512.772 35.5696 509.995 36.7338L510.382 37.656ZM518.958 35.992V36.992C521.951 36.992 524.687 37.5245 527.177 38.5771L527.566 37.656L527.955 36.7349C525.197 35.5688 522.194 34.992 518.958 34.992V35.992ZM527.566 37.656L527.179 38.5782C529.706 39.6377 531.886 41.11 533.731 42.9954L534.446 42.296L535.161 41.5966C533.123 39.514 530.717 37.893 527.953 36.7338L527.566 37.656ZM534.446 42.296L533.735 42.9993C535.601 44.8855 537.043 47.0971 538.062 49.6434L538.99 49.272L539.919 48.9006C538.804 46.1136 537.216 43.6745 535.157 41.5927L534.446 42.296ZM538.99 49.272L538.065 49.6524C539.1 52.1683 539.622 54.8967 539.622 57.848H540.622H541.622C541.622 54.6553 541.056 51.6663 539.915 48.8916L538.99 49.272ZM540.622 57.848H539.622C539.622 60.8265 539.119 63.5817 538.123 66.123L539.054 66.488L539.985 66.853C541.079 64.061 541.622 61.0562 541.622 57.848H540.622ZM539.054 66.488L538.124 66.1205C537.126 68.646 535.704 70.8593 533.856 72.7685L534.574 73.464L535.292 74.1595C537.327 72.058 538.891 69.6206 539.984 66.8555L539.054 66.488ZM534.574 73.464L533.859 72.7646C532.014 74.65 529.834 76.1223 527.307 77.1818L527.694 78.104L528.081 79.0262C530.845 77.867 533.251 76.246 535.289 74.1634L534.574 73.464ZM527.694 78.104L527.307 77.1818C524.797 78.2345 522.018 78.768 518.958 78.768V79.768V80.768C522.255 80.768 525.3 80.1922 528.081 79.0262L527.694 78.104ZM518.958 79.768V78.768C515.831 78.768 513.009 78.2335 510.478 77.1807L510.094 78.104L509.71 79.0273C512.512 80.1931 515.6 80.768 518.958 80.768V79.768ZM510.094 78.104L510.481 77.1818C507.955 76.1227 505.787 74.6515 503.965 72.7686L503.246 73.464L502.527 74.1594C504.545 76.2445 506.942 77.8666 509.707 79.0262L510.094 78.104ZM503.246 73.464L503.968 72.7724C502.14 70.863 500.727 68.6484 499.728 66.1205L498.798 66.488L497.868 66.8555C498.96 69.6183 500.512 72.0544 502.524 74.1556L503.246 73.464ZM498.798 66.488L499.732 66.1295C498.755 63.5864 498.262 60.829 498.262 57.848H497.262H496.262C496.262 61.0537 496.793 64.0562 497.865 66.8465L498.798 66.488ZM573.932 36.76V35.76H572.932V36.76H573.932ZM583.5 36.76H584.5V35.76H583.5V36.76ZM581.452 71.768L582.333 72.2417L582.334 72.2386L581.452 71.768ZM575.596 77.688L576.075 78.5656L576.081 78.5625L575.596 77.688ZM557.356 77.688L556.874 78.5642L556.88 78.5673L557.356 77.688ZM551.468 71.768L550.583 72.2329L550.587 72.2417L551.468 71.768ZM549.452 36.76V35.76H548.452V36.76H549.452ZM558.988 36.76H559.988V35.76H558.988V36.76ZM559.884 67.064L558.973 67.4756L558.978 67.4877L559.884 67.064ZM562.508 70.072L561.991 70.9281L562.003 70.9352L562.508 70.072ZM570.444 70.072L570.956 70.931L570.968 70.9237L570.444 70.072ZM573.004 67.064L572.098 66.6403L572.093 66.6524L573.004 67.064ZM573.932 36.76V37.76H583.5V36.76V35.76H573.932V36.76ZM583.5 36.76H582.5V62.712H583.5H584.5V36.76H583.5ZM583.5 62.712H582.5C582.5 66.0576 581.844 68.9084 580.57 71.2974L581.452 71.768L582.334 72.2386C583.791 69.5076 584.5 66.3211 584.5 62.712H583.5ZM581.452 71.768L580.571 71.2943C579.297 73.663 577.483 75.4977 575.111 76.8135L575.596 77.688L576.081 78.5625C578.786 77.0623 580.876 74.9504 582.333 72.2417L581.452 71.768ZM575.596 77.688L575.117 76.8104C572.754 78.1011 569.896 78.768 566.508 78.768V79.768V80.768C570.159 80.768 573.361 80.0482 576.075 78.5656L575.596 77.688ZM566.508 79.768V78.768C563.097 78.768 560.218 78.1007 557.832 76.8087L557.356 77.688L556.88 78.5673C559.614 80.0486 562.836 80.768 566.508 80.768V79.768ZM557.356 77.688L557.838 76.8118C555.444 75.4954 553.621 73.6607 552.349 71.2943L551.468 71.768L550.587 72.2417C552.045 74.9526 554.148 77.0646 556.874 78.5642L557.356 77.688ZM551.468 71.768L552.353 71.3032C551.098 68.9129 550.452 66.06 550.452 62.712H549.452H548.452C548.452 66.3187 549.149 69.5031 550.583 72.2328L551.468 71.768ZM549.452 62.712H550.452V36.76H549.452H548.452V62.712H549.452ZM549.452 36.76V37.76H558.988V36.76V35.76H549.452V36.76ZM558.988 36.76H557.988V62.2H558.988H559.988V36.76H558.988ZM558.988 62.2H557.988C557.988 64.2183 558.301 65.989 558.973 67.4756L559.884 67.064L560.795 66.6524C560.272 65.4937 559.988 64.0217 559.988 62.2H558.988ZM559.884 67.064L558.978 67.4877C559.672 68.9701 560.673 70.1323 561.991 70.9281L562.508 70.072L563.025 69.2159C562.082 68.6464 561.334 67.8032 560.79 66.6403L559.884 67.064ZM562.508 70.072L562.003 70.9352C563.312 71.7005 564.825 72.064 566.508 72.064V71.064V70.064C565.119 70.064 563.966 69.7661 563.013 69.2088L562.508 70.072ZM566.508 71.064V72.064C568.171 72.064 569.667 71.6995 570.956 70.9309L570.444 70.072L569.932 69.2131C569.002 69.7672 567.874 70.064 566.508 70.064V71.064ZM570.444 70.072L570.968 70.9237C572.267 70.1245 573.246 68.9587 573.915 67.4756L573.004 67.064L572.093 66.6524C571.568 67.8146 570.84 68.6542 569.92 69.2203L570.444 70.072ZM573.004 67.064L573.91 67.4877C574.607 65.9975 574.932 64.2223 574.932 62.2H573.932H572.932C572.932 64.0177 572.638 65.4851 572.098 66.6403L573.004 67.064ZM573.932 62.2H574.932V36.76H573.932H572.932V62.2H573.932ZM604.506 64.408L603.612 64.8553L603.618 64.8669L604.506 64.408ZM608.634 69.048L608.084 69.8832L608.089 69.8862L608.634 69.048ZM620.89 69.048L620.345 68.2098L620.34 68.2128L620.89 69.048ZM625.018 64.408L624.128 63.9531L624.126 63.9569L625.018 64.408ZM625.018 51.32L624.126 51.7711L624.13 51.7789L625.018 51.32ZM620.89 46.68L620.333 47.5106L620.345 47.5182L620.89 46.68ZM608.634 46.68L609.184 47.5152L609.186 47.5136L608.634 46.68ZM604.506 51.32L603.617 50.8611L603.614 50.8689L604.506 51.32ZM594.714 49.272L595.639 49.6524L595.64 49.6498L594.714 49.272ZM599.29 42.296L598.579 41.5927V41.5927L599.29 42.296ZM623.386 37.656L622.997 38.5771L622.999 38.5782L623.386 37.656ZM630.266 42.296L629.551 42.9954L629.555 42.9993L630.266 42.296ZM634.81 49.272L633.881 49.6434L633.885 49.6524L634.81 49.272ZM634.874 66.488L635.804 66.8555L635.805 66.853L634.874 66.488ZM630.394 73.464L631.109 74.1634L631.112 74.1595L630.394 73.464ZM623.514 78.104L623.901 79.0262L623.514 78.104ZM605.914 78.104L605.527 79.0262L605.53 79.0273L605.914 78.104ZM599.066 73.464L598.344 74.1556L598.347 74.1594L599.066 73.464ZM594.618 66.488L593.684 66.8465L593.688 66.8555L594.618 66.488ZM603.034 57.848H602.034C602.034 60.3984 602.554 62.7404 603.612 64.8552L604.506 64.408L605.4 63.9608C604.495 62.1502 604.034 60.119 604.034 57.848H603.034ZM604.506 64.408L603.618 64.8669C604.695 66.9538 606.185 68.6327 608.084 69.8832L608.634 69.048L609.184 68.2128C607.584 67.1593 606.322 65.7449 605.395 63.9491L604.506 64.408ZM608.634 69.048L608.089 69.8862C610.038 71.1543 612.279 71.776 614.778 71.776V70.776V69.776C612.626 69.776 610.772 69.2457 609.179 68.2098L608.634 69.048ZM614.778 70.776V71.776C617.276 71.776 619.51 71.1544 621.44 69.8832L620.89 69.048L620.34 68.2128C618.772 69.2456 616.93 69.776 614.778 69.776V70.776ZM620.89 69.048L621.435 69.8862C623.358 68.6351 624.852 66.9529 625.91 64.8591L625.018 64.408L624.126 63.9569C623.221 65.7457 621.963 67.1569 620.345 68.2098L620.89 69.048ZM625.018 64.408L625.909 64.8629C626.99 62.7465 627.522 60.4017 627.522 57.848H626.522H625.522C625.522 60.1156 625.052 62.1441 624.128 63.9531L625.018 64.408ZM626.522 57.848H627.522C627.522 55.2944 626.99 52.9585 625.906 50.8611L625.018 51.32L624.13 51.7789C625.052 53.5642 625.522 55.5802 625.522 57.848H626.522ZM625.018 51.32L625.91 50.8689C624.852 48.7751 623.358 47.0929 621.435 45.8418L620.89 46.68L620.345 47.5182C621.963 48.5711 623.221 49.9823 624.126 51.7711L625.018 51.32ZM620.89 46.68L621.447 45.8495C619.516 44.5543 617.28 43.92 614.778 43.92V44.92V45.92C616.926 45.92 618.765 46.459 620.333 47.5105L620.89 46.68ZM614.778 44.92V43.92C612.276 43.92 610.032 44.5543 608.082 45.8464L608.634 46.68L609.186 47.5136C610.778 46.459 612.63 45.92 614.778 45.92V44.92ZM608.634 46.68L608.084 45.8448C606.185 47.0953 604.695 48.7742 603.618 50.8611L604.506 51.32L605.395 51.7789C606.322 49.9831 607.584 48.5687 609.184 47.5152L608.634 46.68ZM604.506 51.32L603.614 50.8689C602.554 52.9647 602.034 55.2978 602.034 57.848H603.034H604.034C604.034 55.5769 604.495 53.558 605.398 51.7711L604.506 51.32ZM593.082 57.848H594.082C594.082 54.8967 594.604 52.1683 595.639 49.6524L594.714 49.272L593.789 48.8916C592.648 51.6663 592.082 54.6553 592.082 57.848H593.082ZM594.714 49.272L595.64 49.6498C596.68 47.1007 598.134 44.8869 600.001 42.9993L599.29 42.296L598.579 41.5927C596.521 43.6731 594.924 46.11 593.788 48.8942L594.714 49.272ZM599.29 42.296L600.001 42.9993C601.868 41.1115 604.061 39.6381 606.589 38.5782L606.202 37.656L605.815 36.7338C603.052 37.8926 600.637 39.5125 598.579 41.5927L599.29 42.296ZM606.202 37.656L606.589 38.5782C609.103 37.5238 611.829 36.992 614.778 36.992V35.992V34.992C611.583 34.992 608.592 35.5696 605.815 36.7338L606.202 37.656ZM614.778 35.992V36.992C617.771 36.992 620.507 37.5245 622.997 38.5771L623.386 37.656L623.775 36.7349C621.017 35.5688 618.014 34.992 614.778 34.992V35.992ZM623.386 37.656L622.999 38.5782C625.526 39.6377 627.706 41.11 629.551 42.9954L630.266 42.296L630.981 41.5966C628.943 39.514 626.537 37.893 623.773 36.7338L623.386 37.656ZM630.266 42.296L629.555 42.9993C631.421 44.8855 632.863 47.0971 633.882 49.6434L634.81 49.272L635.739 48.9006C634.624 46.1136 633.036 43.6745 630.977 41.5927L630.266 42.296ZM634.81 49.272L633.885 49.6524C634.92 52.1683 635.442 54.8967 635.442 57.848H636.442H637.442C637.442 54.6553 636.876 51.6663 635.735 48.8916L634.81 49.272ZM636.442 57.848H635.442C635.442 60.8265 634.939 63.5817 633.943 66.123L634.874 66.488L635.805 66.853C636.899 64.061 637.442 61.0562 637.442 57.848H636.442ZM634.874 66.488L633.944 66.1205C632.946 68.646 631.524 70.8593 629.676 72.7685L630.394 73.464L631.112 74.1595C633.147 72.058 634.711 69.6206 635.804 66.8555L634.874 66.488ZM630.394 73.464L629.679 72.7646C627.834 74.65 625.654 76.1223 623.127 77.1818L623.514 78.104L623.901 79.0262C626.665 77.867 629.071 76.246 631.109 74.1634L630.394 73.464ZM623.514 78.104L623.127 77.1818C620.617 78.2345 617.838 78.768 614.778 78.768V79.768V80.768C618.075 80.768 621.12 80.1922 623.901 79.0262L623.514 78.104ZM614.778 79.768V78.768C611.651 78.768 608.829 78.2335 606.298 77.1807L605.914 78.104L605.53 79.0273C608.332 80.1931 611.42 80.768 614.778 80.768V79.768ZM605.914 78.104L606.301 77.1818C603.775 76.1227 601.607 74.6515 599.785 72.7686L599.066 73.464L598.347 74.1594C600.365 76.2445 602.762 77.8666 605.527 79.0262L605.914 78.104ZM599.066 73.464L599.788 72.7724C597.96 70.863 596.547 68.6484 595.548 66.1205L594.618 66.488L593.688 66.8555C594.78 69.6183 596.332 72.0544 598.344 74.1556L599.066 73.464ZM594.618 66.488L595.552 66.1295C594.575 63.5864 594.082 60.829 594.082 57.848H593.082H592.082C592.082 61.0537 592.613 64.0562 593.685 66.8465L594.618 66.488ZM652.333 45.144H653.333V44.144H652.333V45.144ZM642.253 45.144H641.253V46.144H642.253V45.144ZM642.253 36.76V35.76H641.253V36.76H642.253ZM671.949 36.76H672.949V35.76H671.949V36.76ZM671.949 45.144V46.144H672.949V45.144H671.949ZM661.901 45.144V44.144H660.901V45.144H661.901ZM661.901 79V80H662.901V79H661.901ZM652.333 79H651.333V80H652.333V79ZM652.333 45.144V44.144H642.253V45.144V46.144H652.333V45.144ZM642.253 45.144H643.253V36.76H642.253H641.253V45.144H642.253ZM642.253 36.76V37.76H671.949V36.76V35.76H642.253V36.76ZM671.949 36.76H670.949V45.144H671.949H672.949V36.76H671.949ZM671.949 45.144V44.144H661.901V45.144V46.144H671.949V45.144ZM661.901 45.144H660.901V79H661.901H662.901V45.144H661.901ZM661.901 79V78H652.333V79V80H661.901V79ZM652.333 79H653.333V45.144H652.333H651.333V79H652.333ZM681.246 36.76V35.76H680.246V36.76H681.246ZM708.222 36.76H709.222V35.76H708.222V36.76ZM708.222 45.144V46.144H709.222V45.144H708.222ZM690.782 45.144V44.144H689.782V45.144H690.782ZM690.782 53.752H689.782V54.752H690.782V53.752ZM708.062 53.752H709.062V52.752H708.062V53.752ZM708.062 61.88V62.88H709.062V61.88H708.062ZM690.782 61.88V60.88H689.782V61.88H690.782ZM690.782 70.616H689.782V71.616H690.782V70.616ZM708.222 70.616H709.222V69.616H708.222V70.616ZM708.222 79V80H709.222V79H708.222ZM681.246 79H680.246V80H681.246V79ZM681.246 36.76V37.76H708.222V36.76V35.76H681.246V36.76ZM708.222 36.76H707.222V45.144H708.222H709.222V36.76H708.222ZM708.222 45.144V44.144H690.782V45.144V46.144H708.222V45.144ZM690.782 45.144H689.782V53.752H690.782H691.782V45.144H690.782ZM690.782 53.752V54.752H708.062V53.752V52.752H690.782V53.752ZM708.062 53.752H707.062V61.88H708.062H709.062V53.752H708.062ZM708.062 61.88V60.88H690.782V61.88V62.88H708.062V61.88ZM690.782 61.88H689.782V70.616H690.782H691.782V61.88H690.782ZM690.782 70.616V71.616H708.222V70.616V69.616H690.782V70.616ZM708.222 70.616H707.222V79H708.222H709.222V70.616H708.222ZM708.222 79V78H681.246V79V80H708.222V79ZM681.246 79H682.246V36.76H681.246H680.246V79H681.246ZM722.057 78.072L721.344 78.7725L721.35 78.7791L721.357 78.7857L722.057 78.072ZM722.057 69.848L721.35 69.1409L722.057 69.848ZM730.281 69.848L729.568 70.5485L729.574 70.5551L730.281 69.848ZM730.281 78.072L730.989 78.7791L730.995 78.7725L730.281 78.072ZM726.154 79.768V78.768C724.843 78.768 723.728 78.3101 722.758 77.3583L722.057 78.072L721.357 78.7857C722.691 80.0952 724.306 80.768 726.154 80.768V79.768ZM722.057 78.072L722.771 77.3715C721.819 76.4018 721.362 75.2862 721.362 73.976H720.362H719.362C719.362 75.8232 720.034 77.4382 721.344 78.7725L722.057 78.072ZM720.362 73.976H721.362C721.362 72.6157 721.824 71.4953 722.765 70.5551L722.057 69.848L721.35 69.1409C720.029 70.462 719.362 72.0936 719.362 73.976H720.362ZM722.057 69.848L722.765 70.5551C723.736 69.5839 724.849 69.12 726.154 69.12V68.12V67.12C724.3 67.12 722.683 67.8081 721.35 69.1409L722.057 69.848ZM726.154 68.12V69.12C727.508 69.12 728.626 69.589 729.568 70.5485L730.281 69.848L730.995 69.1475C729.676 67.803 728.042 67.12 726.154 67.12V68.12ZM730.281 69.848L729.574 70.5551C730.515 71.4953 730.977 72.6157 730.977 73.976H731.977H732.977C732.977 72.0936 732.31 70.462 730.989 69.1409L730.281 69.848ZM731.977 73.976H730.977C730.977 75.2862 730.52 76.4018 729.568 77.3715L730.281 78.072L730.995 78.7725C732.305 77.4382 732.977 75.8232 732.977 73.976H731.977ZM730.281 78.072L729.574 77.3649C728.634 78.3051 727.514 78.768 726.154 78.768V79.768V80.768C728.036 80.768 729.667 80.1002 730.989 78.7791L730.281 78.072ZM766.615 79V80H767.32L767.557 79.3354L766.615 79ZM755.799 79L754.857 79.3354L755.094 80H755.799V79ZM740.759 36.76V35.76H739.341L739.817 37.0954L740.759 36.76ZM751.543 36.76L752.495 36.4538L752.272 35.76H751.543V36.76ZM761.207 66.808L760.255 67.1142L761.207 70.0741L762.159 67.1142L761.207 66.808ZM770.871 36.76V35.76H770.142L769.919 36.4538L770.871 36.76ZM781.655 36.76L782.597 37.0954L783.073 35.76H781.655V36.76ZM766.615 79V78H755.799V79V80H766.615V79ZM755.799 79L756.741 78.6646L741.701 36.4246L740.759 36.76L739.817 37.0954L754.857 79.3354L755.799 79ZM740.759 36.76V37.76H751.543V36.76V35.76H740.759V36.76ZM751.543 36.76L750.591 37.0662L760.255 67.1142L761.207 66.808L762.159 66.5018L752.495 36.4538L751.543 36.76ZM761.207 66.808L762.159 67.1142L771.823 37.0662L770.871 36.76L769.919 36.4538L760.255 66.5018L761.207 66.808ZM770.871 36.76V37.76H781.655V36.76V35.76H770.871V36.76ZM781.655 36.76L780.713 36.4246L765.673 78.6646L766.615 79L767.557 79.3354L782.597 37.0954L781.655 36.76ZM840.606 45.144H841.606V44.144H840.606V45.144ZM830.526 45.144H829.526V46.144H830.526V45.144ZM830.526 36.76V35.76H829.526V36.76H830.526ZM860.221 36.76H861.221V35.76H860.221V36.76ZM860.221 45.144V46.144H861.221V45.144H860.221ZM850.174 45.144V44.144H849.174V45.144H850.174ZM850.174 79V80H851.174V79H850.174ZM840.606 79H839.606V80H840.606V79ZM840.606 45.144V44.144H830.526V45.144V46.144H840.606V45.144ZM830.526 45.144H831.526V36.76H830.526H829.526V45.144H830.526ZM830.526 36.76V37.76H860.221V36.76V35.76H830.526V36.76ZM860.221 36.76H859.221V45.144H860.221H861.221V36.76H860.221ZM860.221 45.144V44.144H850.174V45.144V46.144H860.221V45.144ZM850.174 45.144H849.174V79H850.174H851.174V45.144H850.174ZM850.174 79V78H840.606V79V80H850.174V79ZM840.606 79H841.606V45.144H840.606H839.606V79H840.606ZM869.519 36.76V35.76H868.519V36.76H869.519ZM896.495 36.76H897.495V35.76H896.495V36.76ZM896.495 45.144V46.144H897.495V45.144H896.495ZM879.055 45.144V44.144H878.055V45.144H879.055ZM879.055 53.752H878.055V54.752H879.055V53.752ZM896.335 53.752H897.335V52.752H896.335V53.752ZM896.335 61.88V62.88H897.335V61.88H896.335ZM879.055 61.88V60.88H878.055V61.88H879.055ZM879.055 70.616H878.055V71.616H879.055V70.616ZM896.495 70.616H897.495V69.616H896.495V70.616ZM896.495 79V80H897.495V79H896.495ZM869.519 79H868.519V80H869.519V79ZM869.519 36.76V37.76H896.495V36.76V35.76H869.519V36.76ZM896.495 36.76H895.495V45.144H896.495H897.495V36.76H896.495ZM896.495 45.144V44.144H879.055V45.144V46.144H896.495V45.144ZM879.055 45.144H878.055V53.752H879.055H880.055V45.144H879.055ZM879.055 53.752V54.752H896.335V53.752V52.752H879.055V53.752ZM896.335 53.752H895.335V61.88H896.335H897.335V53.752H896.335ZM896.335 61.88V60.88H879.055V61.88V62.88H896.335V61.88ZM879.055 61.88H878.055V70.616H879.055H880.055V61.88H879.055ZM879.055 70.616V71.616H896.495V70.616V69.616H879.055V70.616ZM896.495 70.616H895.495V79H896.495H897.495V70.616H896.495ZM896.495 79V78H869.519V79V80H896.495V79ZM869.519 79H870.519V36.76H869.519H868.519V79H869.519Z" fill="black" mask="url(#path-1-outside-1_7059_17903)"/>
<path d="M810.233 33.9344L809.037 27.1334" stroke="#20E08E" stroke-width="3" stroke-linecap="round" stroke-linejoin="round"/>
<path d="M814.708 35.8392L818.404 27.0001" stroke="#20E08E" stroke-width="3" stroke-linecap="round" stroke-linejoin="round"/>
<path d="M819.013 37.854L823.834 33.9969" stroke="#20E08E" stroke-width="3" stroke-linecap="round" stroke-linejoin="round"/>
<path d="M826.999 58.2668C826.999 70.6929 816.926 80.7662 804.5 80.7662C799.881 80.7662 795.588 79.3745 792.016 76.9877L790.275 75.7031C790.092 75.5678 789.921 75.4171 789.763 75.2526L786.81 72.1706C783.797 68.3435 782 63.515 782 58.2668C782 45.8407 792.074 35.7673 804.5 35.7673C816.926 35.7673 826.999 45.8407 826.999 58.2668Z" fill="url(#paint0_linear_7059_17903)"/>
<path d="M804.432 35.767C804.976 35.7664 805.525 35.7743 806.065 35.8124C813.272 36.3229 820.104 40.2733 823.985 46.9951C830.194 57.75 826.506 71.5213 815.751 77.7304C805.605 83.6696 791.606 80.8232 785.015 69.4966C778.806 58.7417 782.495 44.9705 793.249 38.7612C796.958 36.6617 800.85 35.7586 804.432 35.767ZM804.454 37.196C801.16 37.2052 797.823 38.0151 794.723 39.6458L800.984 43.4565C802.928 41.6325 804.967 40.2339 806.927 39.3055C808.188 38.708 809.428 38.3076 810.601 38.1033C809.097 37.6482 807.548 37.3523 805.974 37.2414C805.469 37.2058 804.963 37.1946 804.454 37.196ZM807.562 40.6212C805.849 41.4325 804.035 42.6523 802.277 44.2504L809.014 48.3561L813.777 39.5777C811.646 39.1202 809.205 39.8561 807.562 40.6212ZM815.093 40.1902L810.261 49.1046L816.817 53.0968C817.02 52.1699 817.183 51.2485 817.293 50.3748C817.268 47.0127 817.719 42.2901 815.093 40.1902ZM793.249 40.4624C790.667 42.0907 788.561 44.2111 786.966 46.6095L794.859 51.4636C795.146 50.9498 795.431 50.4274 795.744 49.9212C797.02 47.8588 798.43 46.0703 799.918 44.5226L793.249 40.4624ZM818.223 42.277C819.003 44.4819 819.127 47.351 818.722 50.5563C818.587 51.628 818.374 52.7533 818.109 53.8907L825.55 58.4046C825.576 54.7826 824.68 51.0864 822.737 47.7209C821.515 45.6039 819.976 43.7842 818.223 42.277ZM801.188 45.3165C799.701 46.8277 798.27 48.6032 796.992 50.6697C796.676 51.1805 796.395 51.7148 796.107 52.2348L804.228 57.2251L808.333 49.649L801.188 45.3165ZM786.217 47.8343C784.712 50.4744 783.785 53.4152 783.518 56.4312L791.049 61.0132C791.735 58.2976 792.773 55.4865 794.179 52.7339L786.217 47.8343ZM809.581 50.3975L805.475 57.9963L813.21 62.7597C814.66 60.0088 815.746 57.224 816.454 54.5712L809.581 50.3975ZM795.427 53.5051C794.026 56.2784 793.014 59.1159 792.364 61.8297L799.419 66.1167L803.547 58.4954L795.427 53.5051ZM817.747 55.3651C817.009 58.0328 815.906 60.7952 814.458 63.5309L822.805 68.6572C824.303 66.019 825.217 63.0947 825.482 60.0832L817.747 55.3651ZM783.45 58.1097C783.42 61.7334 784.317 65.4003 786.263 68.7707C787.492 70.9009 789.032 72.7468 790.799 74.26C789.983 71.9939 789.811 68.9818 790.187 65.6405C790.3 64.633 790.488 63.5933 790.708 62.5328L783.45 58.1097ZM804.772 59.2666L800.666 66.8653L807.38 70.9483C809.516 68.5916 811.126 66.4773 812.507 64.0299L804.772 59.2666ZM792.047 63.3494C791.883 64.1966 791.729 65.0175 791.638 65.8219C791.684 69.3331 791.298 74.0157 793.884 76.3241L798.716 67.4097L792.047 63.3494ZM813.754 64.8011C812.338 67.2934 810.435 69.8376 808.651 71.7195L815.75 76.0519C818.34 74.4183 820.459 72.3149 822.056 69.9049L813.754 64.8011ZM799.986 68.1582L795.245 76.9139C797.364 77.2639 799.744 76.4105 801.324 75.5982C802.937 74.7562 804.626 73.5399 806.292 71.9917L799.986 68.1582ZM807.585 72.7855C805.747 74.5301 803.843 75.9087 802.005 76.8685C800.655 77.5731 799.328 78.0774 798.08 78.3202C803.288 79.987 809.123 79.6176 814.299 76.8912L807.585 72.7855Z" fill="white"/>
<defs>
<linearGradient id="paint0_linear_7059_17903" x1="815.974" y1="40.2895" x2="789.877" y2="79.5624" gradientUnits="userSpaceOnUse">
<stop stop-color="#20E08E"/>
<stop offset="0.53125" stop-color="#1BB5D8"/>
<stop offset="1" stop-color="#4066EC"/>
</linearGradient>
</defs>
</svg>