<svg width="55" height="50" viewBox="0 0 55 50" fill="none" xmlns="http://www.w3.org/2000/svg">
<path d="M54.6427 2.72484L53.5915 9.69327C53.5915 9.69327 52.5334 15.2397 52.451 15.5971C52.3685 15.9544 51.1524 18.7686 51.1524 18.7686L47.9781 24.0545C47.8201 24.3151 46.604 25.6403 45.2986 23.6152C43.9931 21.5902 40.5784 20.6373 40.5784 20.6373C40.5784 20.6373 38.6271 20.1087 38.3042 20.1087C37.9813 20.1087 36.1056 19.4908 35.2948 19.4908C33.8863 19.2383 32.5344 18.7003 31.3098 17.905C30.4991 17.2871 28.7883 18.3443 28.5615 18.5229L27.4828 19.0143L26.4247 18.5006C26.1843 18.3219 24.4735 17.2647 23.6765 17.8827C22.4519 18.678 21.1 19.2159 19.6914 19.4684C18.8807 19.4684 17.005 20.0864 16.6821 20.0864C16.3591 20.0864 14.4285 20.5926 14.4285 20.5926C14.4285 20.5926 10.9931 21.5605 9.70831 23.5706C8.42348 25.5807 7.18676 24.2704 7.02873 24.0098L3.85447 18.7239C3.85447 18.7239 2.63835 15.9023 2.5559 15.5524C2.47345 15.2025 1.37414 9.69327 1.37414 9.69327L0.322923 2.72484L0 0C0 0 0.893192 11.8076 0.687071 13.5646C0.480949 15.3216 0.927545 23.0867 0.927545 23.0867C0.927545 23.0867 1.66271 27.5536 2.15053 29.1617C2.94831 31.4267 3.9834 33.5849 5.23548 35.5941C6.05309 36.6513 9.06246 40.88 9.55028 40.9693C10.0381 41.0587 14.2636 45.2874 14.2636 45.2874L17.273 47.3124L18.0012 46.7838L19.1418 48.3696L20.1174 47.841C20.1174 47.841 20.8182 49.1662 20.8182 48.8833C20.8182 48.6004 21.629 48.1388 21.629 48.1388L23.3604 49.4267L24.6658 48.8981C25.0138 49.0199 25.3428 49.1982 25.6415 49.4267C25.8819 49.6948 26.4522 49.4267 26.4522 49.4267L27.4828 50L28.5409 49.4267C28.5409 49.4267 29.1112 49.6948 29.3517 49.4267C29.6495 49.1929 29.9785 49.0097 30.3273 48.8833L31.6327 49.4118L33.3367 48.176C33.3367 48.176 34.1474 48.6227 34.1474 48.9205C34.1474 49.2183 34.8826 47.8633 34.8826 47.8633L35.8582 48.3919L36.9987 46.8061L37.727 47.3347L40.7364 45.3097C40.7364 45.3097 44.9619 41.081 45.4497 40.9917C45.9375 40.9023 48.9469 36.6736 49.7645 35.6164C51.0166 33.6073 52.0517 31.449 52.8495 29.184C53.3373 27.5983 54.0724 23.109 54.0724 23.109C54.0724 23.109 54.5603 15.3514 54.3129 13.587C54.0656 11.8225 55 0.0223352 55 0.0223352L54.6427 2.72484ZM39.163 33.919C38.0272 34.4764 36.9829 35.2308 36.0712 36.1525C35.3429 36.9491 34.6971 37.3883 32.9863 36.7704C31.2754 36.1525 29.654 35.8919 29.812 35.0953C29.97 34.2987 31.1174 33.6063 31.1174 33.6063C31.1174 33.6063 32.0106 31.492 29.654 31.2239C28.7676 31.0899 28.0325 31.0155 27.4828 31.0155C26.9332 31.0155 26.198 31.0899 25.2842 31.1867C22.9275 31.4547 23.8207 33.5691 23.8207 33.5691C23.8207 33.5691 24.9613 34.2764 25.1262 35.0581C25.2911 35.8398 23.6627 36.1227 21.9863 36.7406C20.3098 37.3585 19.6296 36.9193 18.9013 36.1227C17.9896 35.201 16.9453 34.4466 15.8095 33.8892C14.346 33.1001 13.6109 30.7177 13.6109 30.7177L16.05 27.6355L18.7364 26.1465L23.2092 24.9777L25.4216 24.3151L27.4828 23.1686L29.544 24.3151L31.8182 25L36.2911 26.1688L38.9775 27.6578L41.4166 30.74C41.4166 30.74 40.654 33.1298 39.163 33.919Z" fill="black"/>
</svg>
