<svg width="60" height="55" viewBox="0 0 60 55" fill="none" xmlns="http://www.w3.org/2000/svg">
<path d="M59.6462 7.88624C59.878 7.60016 60 7.22373 60 6.81719C60 6.41065 59.8658 6.03422 59.634 5.74813L55.2546 0.432964C54.7788 -0.154264 54.0103 -0.139206 53.5345 0.448022L32.2107 26.9486L27.1603 31.9927C27.1359 32.0228 27.1115 32.0529 27.0749 32.083C25.428 32.2938 23.6714 32.9865 22.0489 34.0104C21.9635 33.9953 21.8781 33.9802 21.7927 33.9953C17.5109 34.2212 8.5202 36.0431 4.67752 36.811C3.86019 36.9766 3.21364 37.1121 3.03065 37.1422C2.12793 37.2928 0.554255 38.1059 0.115091 41.9605C-0.336272 45.9657 0.542056 52.7565 2.71348 53.946C2.87207 54.0363 3.04285 54.0815 3.21364 54.0815C3.27463 54.0815 3.33563 54.0815 3.39662 54.0665C3.48202 54.0514 12.0823 52.4403 18.2794 51.1153C18.377 51.2357 18.4746 51.3712 18.5844 51.4917C20.5118 53.8255 22.5247 55 24.5131 55C26.3795 55 28.2094 53.9611 29.8807 51.8531C30.7712 50.7388 31.5641 49.3987 32.2229 47.9533C32.2839 47.9533 32.3449 47.9533 32.4059 47.9533C34.7603 47.6371 39.2373 47.3058 40.018 47.3811C43.3118 47.6973 48.0694 50.4678 51.5461 52.4855C54.3397 54.1116 55.7182 54.8795 56.5965 54.8795C57.1088 54.8795 57.5602 54.5633 57.792 54.0363C58.2189 53.1028 57.7432 52.1693 57.5968 51.8681C56.6575 49.986 53.2662 45.8754 49.2039 42.2617C46.0199 39.4309 41.5795 36.1635 37.566 35.5763L38.3346 34.4169L59.6462 7.88624ZM54.4251 3.64013L57.06 6.8473L37.7612 30.8183L35.1262 27.6111L54.4251 3.64013ZM33.3574 29.689L36.09 33.0015L33.1744 37.4133L29.7709 33.2726L33.3574 29.689ZM3.57961 50.9797C2.89646 49.6848 1.98154 44.731 2.68908 41.4938C2.82327 40.8764 3.07945 40.1988 3.36003 40.1386C3.57961 40.1085 4.14076 39.988 5.08009 39.8074C7.95905 39.2201 13.7658 38.0607 18.2062 37.4283C18.1696 37.4735 18.133 37.5187 18.0964 37.5488C15.4126 40.9065 14.9247 44.731 16.6081 48.405C11.5456 49.459 5.43386 50.6334 3.57961 50.9797ZM28.1362 49.7451C25.6476 52.8619 23.0736 52.7414 20.2922 49.3385C17.4987 45.9507 17.3523 42.7736 19.8531 39.6568C21.7805 37.2326 24.8303 35.3956 27.4287 35.0794C27.5263 35.0644 27.6238 35.0342 27.7092 35.0041L31.8691 40.0633C31.7837 40.229 31.7349 40.4247 31.7105 40.6355C31.4177 43.7674 29.9904 47.4263 28.1362 49.7451ZM36.0656 38.4974C39.0543 38.3468 43.3484 40.6807 48.1792 45.0623C50.0944 46.7939 51.7169 48.5254 52.9612 49.986C52.827 49.9107 52.705 49.8354 52.583 49.7601C48.9355 47.6371 43.9339 44.731 40.201 44.3847C39.2495 44.2944 35.724 44.5805 33.394 44.8214C33.7721 43.5415 34.0283 42.2466 34.1381 40.9969C34.1503 40.9065 34.1503 40.8162 34.1381 40.7258C34.1625 40.6957 34.1869 40.6656 34.2113 40.6204L35.663 38.4372C35.785 38.4673 35.9192 38.4974 36.0656 38.4974Z" fill="black"/>
</svg>
