<svg width="40" height="50" viewBox="0 0 40 50" fill="none" xmlns="http://www.w3.org/2000/svg">
<path d="M40 25.4826V25.3783C39.3548 18.8611 33.871 13.3346 26.2581 11.2491C27.8065 9.84136 28.5806 7.96441 28.3226 6.08746C27.9355 2.95922 24.8387 0.404482 20.9032 0.0395203C18.5161 -0.16903 16.129 0.45662 14.3871 1.70792C12.5806 3.01135 11.6129 4.83617 11.6129 6.76525C11.6129 8.43365 12.3871 9.99777 13.7419 11.2491C6.12903 13.2824 0.645161 18.8611 0 25.3783V48.3709C0 49.153 0.709677 49.8308 1.6129 49.9872C2.19355 50.0393 2.77419 49.9351 3.16129 49.6222C3.6129 49.3094 3.87097 48.8923 3.87097 48.4231V25.5869C4.45161 18.809 11.5484 13.491 19.9355 13.491C22.5161 13.491 25.0323 14.0124 27.3548 14.9508C28.4516 16.0979 29.2258 17.7141 29.8065 19.6432C30.1936 20.9988 30.129 22.4065 29.6129 23.7099L27.6774 22.1458C26.9032 21.5202 25.6774 21.5202 24.9677 22.1458L21.4839 24.9612L18.129 22.1979C17.7419 21.8851 17.2903 21.7287 16.7097 21.7287C16.1935 21.7287 15.6774 21.8851 15.3548 22.1979L11.871 25.0134L8.45161 22.2501C7.74194 21.6766 6.64516 21.6244 5.93548 22.0415C5.48387 22.3022 5.16129 22.7193 5.16129 23.1885C5.09677 23.6578 5.29032 24.0749 5.74194 24.4398L10.5806 28.3502C11.2903 28.9237 12.5806 28.9237 13.2903 28.3502L16.7742 25.5347L20.129 28.298C20.5161 28.6108 20.9677 28.7673 21.5484 28.7673C22.0645 28.7673 22.5806 28.6108 22.9032 28.298L26.3871 25.4826L27.7419 26.5775C25.9355 28.3502 23.2903 30.3314 20.3226 30.3314H8.32258C7.22581 30.3314 6.3871 31.0092 6.3871 31.8955C6.3871 32.7818 7.22581 33.4596 8.32258 33.4596H25.0968C31.1613 33.4596 36.0645 37.4221 36.0645 42.323V48.4231C36.0645 49.3094 36.9032 49.9872 38 49.9872C38.5161 49.9872 39.0323 49.8308 39.3548 49.518C39.7419 49.2051 39.9355 48.8402 39.9355 48.4231V33.2511C39.9355 33.1468 40 33.0425 40 32.9383V25.4826ZM24.4516 6.71311C24.4516 8.74648 22.4516 10.3627 19.9355 10.3627C17.4194 10.3627 15.4194 8.74648 15.4194 6.71311C15.4194 4.67975 17.4194 3.06349 19.9355 3.06349C22.4516 3.06349 24.4516 4.73189 24.4516 6.71311Z" fill="black"/>
</svg>
