<svg width="60" height="35" viewBox="0 0 60 35" fill="none" xmlns="http://www.w3.org/2000/svg">
<path d="M58.9976 14.9785C56.6617 12.9955 53.1894 9.86119 49.9065 6.34303C38.2269 -6.06646 30.9035 3.40058 30.0828 4.29611C30.0828 4.36007 30.0828 4.36007 30.0197 4.36007C29.9565 4.42404 29.9565 4.42404 29.9565 4.29611C29.1358 3.40058 21.8124 -6.06646 10.1328 6.34303C6.84991 9.86119 3.37761 12.9955 1.04169 14.9785C-0.34723 16.1299 -0.34723 18.2408 1.04169 19.4562C3.63014 21.7589 7.67064 25.405 10.6379 28.7953C15.1834 33.9765 24.022 35 29.3252 35C34.6284 35 44.919 33.9765 49.4646 28.7953C52.4318 25.405 56.4092 21.7589 59.0608 19.4562C60.3234 18.2408 60.3234 16.1299 58.9976 14.9785ZM52.3055 18.1768C44.6665 23.3581 38.2269 23.7419 30.0197 23.7419C21.8124 23.7419 15.3728 23.4221 7.73377 18.2408C7.41811 18.0489 7.41811 17.5372 7.73377 17.3453C11.0167 14.9145 17.0774 10.4369 23.1382 12.1C29.6409 13.8911 30.3353 13.8911 36.838 12.1C42.8988 10.4369 49.0226 14.9785 52.2424 17.2813C52.6212 17.4732 52.6212 17.9849 52.3055 18.1768Z" fill="black"/>
</svg>
