<svg width="49" height="46" viewBox="0 0 49 46" fill="none" xmlns="http://www.w3.org/2000/svg">
<path d="M24.3831 15.3137C22.3602 15.3137 20.7263 13.6798 20.7263 11.6569C20.7263 9.63398 22.3602 8 24.3831 8C26.406 8 28.0399 9.6339 28.0399 11.6568C28.0399 13.6797 26.406 15.3137 24.3831 15.3137ZM24.3831 10.3341C23.605 10.3341 22.9826 10.9566 22.9826 11.7346C22.9826 12.5127 23.605 13.1351 24.3831 13.1351C25.1611 13.1351 25.7836 12.5127 25.7836 11.7346C25.7836 10.9566 25.1611 10.3341 24.3831 10.3341Z" fill="#F8B64C"/>
<path d="M28.7656 36.7207C28.5275 37.1418 28.1942 37.5277 27.7656 37.8435C27.0037 38.4049 25.9561 38.7207 24.7656 38.7207C23.5751 38.7207 22.5751 38.3698 21.7656 37.8435C21.3371 37.5277 20.9561 37.1418 20.7656 36.7207H28.7656Z" fill="#FF9801"/>
<path d="M35.5903 33.3641H13.1825V22.9383C13.1825 16.7139 18.162 11.7344 24.3864 11.7344C30.6108 11.7344 35.5903 16.7139 35.5903 22.9383V33.3641Z" fill="#FFD15C"/>
<path d="M34.4193 32.2754H14.3456C12.4783 32.2754 11 33.7537 11 35.621V36.3213C11 36.7103 11.3112 37.0215 11.7002 37.0215H37.0646C37.4536 37.0215 37.7649 36.7103 37.7649 36.3213V35.621C37.7649 33.8315 36.2088 32.2754 34.4193 32.2754Z" fill="#F8B64C"/>
</svg>
