<svg width="25" height="25" viewBox="0 0 25 25" fill="none" xmlns="http://www.w3.org/2000/svg">
<path d="M12.5 0C5.59652 0 0 5.59652 0 12.5C0 19.4035 5.59652 25 12.5 25C19.4035 25 25 19.4035 25 12.5C25 5.59652 19.4035 0 12.5 0ZM18.868 13.7709H13.7709V18.868C13.7709 19.57 13.2018 20.1389 12.5 20.1389C11.7982 20.1389 11.2291 19.57 11.2291 18.868V13.7709H6.132C5.42996 13.7709 4.86111 13.2018 4.86111 12.5C4.86111 11.7982 5.42996 11.2291 6.132 11.2291H11.2291V6.132C11.2291 5.42996 11.7982 4.86111 12.5 4.86111C13.2018 4.86111 13.7709 5.42996 13.7709 6.132V11.2291H18.868C19.57 11.2291 20.1389 11.7982 20.1389 12.5C20.1389 13.2018 19.57 13.7709 18.868 13.7709Z" fill="#00CF6E"/>
</svg>
