<svg xmlns="http://www.w3.org/2000/svg" width="25" height="22" fill="none" viewBox="0 0 25 22">
    <path fill="url(#paint0_linear)" d="M20.232 4.226c-.271 0-.422-.115-.568-.246-.283-.254-.288-.67-.01-.928.277-.26.731-.264 1.015-.01l.075.069c.446.416.119 1.115-.512 1.115z"/>
    <path fill="url(#paint1_linear)" d="M17.678 4.98L5.47 9.9c-.564.228-.571.96-.01 1.196l4.427 1.868 2.043 4.046c.258.511 1.06.506 1.309-.01l5.385-11.156c.265-.547-.348-1.107-.946-.865zm-5.11 10.16l-1.278-2.53 1.082-.988c.28-.256.28-.672 0-.928-.28-.257-.736-.257-1.016 0l-1.082.989-2.768-1.168 9.057-3.652-3.996 8.277z"/>
    <path fill="url(#paint2_linear)" d="M12.584 21c-6.35 0-11.49-4.696-11.49-10.5 0-3.333 1.707-6.35 4.445-8.294 3.96-2.813 9.235-2.85 13.149-.602.335.193.437.598.226.905-.211.306-.655.399-.99.206-6.695-3.843-15.393.586-15.393 7.786 0 5.065 4.51 9.187 10.053 9.187 5.456 0 10.053-4.042 10.053-9.187 0-1.744-.537-3.44-1.551-4.906-.212-.306-.113-.711.223-.905.335-.194.778-.102.99.204 3.306 4.774 1.908 11.257-3.504 14.441-1.852 1.09-4 1.665-6.211 1.665z"/>
    <defs>
        <linearGradient id="paint0_linear" x1="20.184" x2="18.842" y1="2.201" y2="3.674" gradientUnits="userSpaceOnUse">
            <stop stop-color="#1BB5D8"/>
            <stop offset=".976" stop-color="#4066EC"/>
        </linearGradient>
        <linearGradient id="paint1_linear" x1="11.731" x2="-.469" y1="-1.014" y2="12.366" gradientUnits="userSpaceOnUse">
            <stop stop-color="#1BB5D8"/>
            <stop offset=".976" stop-color="#4066EC"/>
        </linearGradient>
        <linearGradient id="paint2_linear" x1="12.358" x2="-8.188" y1="-9.997" y2="12.535" gradientUnits="userSpaceOnUse">
            <stop stop-color="#1BB5D8"/>
            <stop offset=".976" stop-color="#4066EC"/>
        </linearGradient>
    </defs>
</svg>
