<svg width="46" height="26" viewBox="0 0 46 26" fill="none" xmlns="http://www.w3.org/2000/svg">
<path d="M5.92366 21.6626L4.1068 19.8457L17.1041 6.70878L29.1231 14.8145L40.1637 3.21484L42.1204 5.03171L29.4026 18.3084L17.3837 10.0629L5.92366 21.6626Z" fill="#ADB3BA" stroke="#ADB3BA"/>
<path d="M5.08622 25.0162C7.40177 25.0162 9.27889 23.1391 9.27889 20.8235C9.27889 18.508 7.40177 16.6309 5.08622 16.6309C2.77068 16.6309 0.893555 18.508 0.893555 20.8235C0.893555 23.1391 2.77068 25.0162 5.08622 25.0162Z" fill="#E91E63"/>
<path d="M17.2484 12.5787C19.564 12.5787 21.4411 10.7016 21.4411 8.38603C21.4411 6.07048 19.564 4.19336 17.2484 4.19336C14.9329 4.19336 13.0558 6.07048 13.0558 8.38603C13.0558 10.7016 14.9329 12.5787 17.2484 12.5787Z" fill="#FF9801"/>
<path d="M29.2605 20.6842C31.576 20.6842 33.4531 18.807 33.4531 16.4915C33.4531 14.1759 31.576 12.2988 29.2605 12.2988C26.9449 12.2988 25.0678 14.1759 25.0678 16.4915C25.0678 18.807 26.9449 20.6842 29.2605 20.6842Z" fill="#00BCD4"/>
<path d="M41.1449 8.38534C43.4604 8.38534 45.3375 6.50821 45.3375 4.19267C45.3375 1.87712 43.4604 0 41.1449 0C38.8293 0 36.9522 1.87712 36.9522 4.19267C36.9522 6.50821 38.8293 8.38534 41.1449 8.38534Z" fill="#FFD15C"/>
</svg>
