<svg width="169" height="49" viewBox="0 0 169 49" fill="none" xmlns="http://www.w3.org/2000/svg">
<path d="M82.3262 16.2031V47.4406H89.4144V35.8544H93.6749C99.7451 35.8544 104.307 32.2573 104.307 25.8205C104.307 19.3458 99.7451 16.2031 93.6749 16.2031H82.3262ZM89.4144 30.1748V21.8827H91.4127C94.2027 21.8827 96.842 22.8293 96.842 26.0477C96.842 29.2282 94.2027 30.1748 91.4127 30.1748H89.4144ZM145.403 16.2031V47.4406H152.491V35.8544H156.752C162.822 35.8544 167.384 32.2573 167.384 25.8205C167.384 19.3458 162.822 16.2031 156.752 16.2031H145.403ZM152.491 30.1748V21.8827H154.489C157.279 21.8827 159.919 22.8293 159.919 26.0477C159.919 29.2282 157.279 30.1748 154.489 30.1748H152.491Z" fill="white"/>
<path d="M108.493 31.8035C108.493 40.9286 114.978 48.0091 124.178 48.0091C133.114 48.0091 139.825 40.9286 139.825 31.8035C139.825 22.6784 132.812 15.6357 124.178 15.6357C115.619 15.6357 108.493 22.6784 108.493 31.8035ZM116.147 31.8035C116.147 27.1463 118.711 22.4891 124.178 22.4891C129.682 22.4891 132.171 27.1463 132.171 31.8035C132.171 36.4607 129.833 41.118 124.178 41.118C118.371 41.118 116.147 36.4607 116.147 31.8035Z" fill="#20E08E"/>
<path d="M25.0634 23.609L14.7726 47.218H10.4256L0.134766 23.609H4.57046L12.6434 42.5408L20.8938 23.609H25.0634ZM38.4567 47.4853C36.1207 47.4853 34.021 46.9657 32.158 45.9262C30.2951 44.8868 28.8313 43.4613 27.7667 41.6499C26.7316 39.8086 26.2142 37.7299 26.2142 35.4135C26.2142 33.0971 26.7316 31.0331 27.7667 29.2217C28.8313 27.3804 30.2951 25.9549 32.158 24.9453C34.021 23.9059 36.1207 23.3862 38.4567 23.3862C40.7928 23.3862 42.8776 23.9059 44.7111 24.9453C46.5741 25.9549 48.023 27.3804 49.058 29.2217C50.1226 31.0331 50.6549 33.0971 50.6549 35.4135C50.6549 37.7299 50.1226 39.8086 49.058 41.6499C48.023 43.4613 46.5741 44.8868 44.7111 45.9262C42.8776 46.9657 40.7928 47.4853 38.4567 47.4853ZM38.4567 43.7435C39.9649 43.7435 41.3104 43.4021 42.4932 42.719C43.7057 42.0062 44.6518 41.0262 45.3321 39.779C46.0123 38.5021 46.3523 37.0468 46.3523 35.4135C46.3523 33.7802 46.0123 32.3399 45.3321 31.0926C44.6518 29.8157 43.7057 28.8357 42.4932 28.1526C41.3104 27.4695 39.9649 27.128 38.4567 27.128C36.9486 27.128 35.5884 27.4695 34.3759 28.1526C33.1931 28.8357 32.2468 29.8157 31.537 31.0926C30.8568 32.3399 30.5168 33.7802 30.5168 35.4135C30.5168 37.0468 30.8568 38.5021 31.537 39.779C32.2468 41.0262 33.1931 42.0062 34.3759 42.719C35.5884 43.4021 36.9486 43.7435 38.4567 43.7435ZM70.757 47.218L63.9704 38.1753L57.0951 47.218H52.3489L61.6195 35.1462L52.7924 23.609H57.5386L64.0148 32.1171L70.4465 23.609H75.104L66.2326 35.1462L75.5919 47.218H70.757Z" fill="white"/>
<path d="M117.989 12.6956L113.775 5.79102" stroke="#20E08E" stroke-width="3" stroke-linecap="round" stroke-linejoin="round"/>
<path d="M124.803 11.84L124.145 1.55908" stroke="#20E08E" stroke-width="3" stroke-linecap="round" stroke-linejoin="round"/>
<path d="M131.1 13.0951L134.845 3.78662" stroke="#20E08E" stroke-width="3" stroke-linecap="round" stroke-linejoin="round"/>
<path d="M136.841 16.3296L141.498 11.876" stroke="#20E08E" stroke-width="3" stroke-linecap="round" stroke-linejoin="round"/>
</svg>
