<svg width="32" height="34" viewBox="0 0 32 34" fill="none" xmlns="http://www.w3.org/2000/svg">
<path d="M8.77698 0.0344849C7.51298 0.0344849 6.34198 0.396994 5.37498 1.01317C5.17798 0.985493 4.98198 0.956899 4.77698 0.956899C2.56798 0.956899 0.776978 2.60894 0.776978 4.64655V10.181C0.776978 13.7471 3.91098 16.6379 7.77698 16.6379C11.643 16.6379 14.777 13.7471 14.777 10.181V5.56989C14.777 2.51301 12.091 0.0344849 8.77698 0.0344849Z" fill="#963B22"/>
<path d="M8.99008 31.6816C8.93808 32.3106 10.8391 32.5606 11.1191 32.4112C11.4181 32.2516 10.4211 31.8365 10.4171 31.51C10.3981 29.8524 10.9471 29.9899 10.7281 28.2889C11.1711 26.79 11.4001 25.898 11.4001 25.4008C11.4001 24.2478 8.08808 24.6943 8.08808 25.4008C8.08808 25.7182 8.45308 26.9514 8.50508 28.2889C8.19208 29.8192 9.14608 29.7786 8.99008 31.6816ZM6.54208 31.6816C6.59408 32.3106 4.69308 32.5606 4.41308 32.4112C4.11408 32.2516 5.11108 31.8365 5.11508 31.51C5.13408 29.8524 4.58508 29.9899 4.80408 28.2889C4.36108 26.79 4.13208 25.898 4.13208 25.4008C4.13208 24.2478 7.44508 24.6943 7.44508 25.4008C7.44508 25.7182 7.08008 26.9514 7.02808 28.2889C7.33908 29.8192 6.38608 29.7786 6.54208 31.6816Z" fill="#D4AB88"/>
<path d="M8.0881 25.4008C8.0881 25.5909 8.2181 26.112 8.3341 26.7845H11.1511C11.3151 26.1489 11.4001 25.7006 11.4001 25.4008C11.4001 24.2478 8.0881 24.6943 8.0881 25.4008ZM4.1311 25.4008C4.1311 25.7006 4.2161 26.1489 4.3801 26.7845H7.1971C7.3131 26.112 7.4441 25.5909 7.4441 25.4008C7.4441 24.6943 4.1311 24.2478 4.1311 25.4008Z" fill="#CC9B7A"/>
<path d="M1.03504 24.9028C0.777038 25.0171 0.532038 24.8133 0.416038 24.6934C0.0880376 24.3548 -0.166962 23.544 0.134038 22.6558C0.437038 21.7582 0.734038 20.4567 1.33304 18.9643C1.41404 18.7613 1.83204 15.4923 2.13804 14.8641C2.33504 14.461 3.41804 14.0376 3.94804 14.1197C4.47704 14.2018 4.19404 14.7202 4.05304 15.1621C4.05304 15.1621 3.13704 18.8084 3.03704 19.1248C2.72104 20.12 1.41304 21.8164 1.47204 23.033C1.50304 23.6713 1.53204 24.1907 1.13304 24.1823C1.08404 24.5163 1.13004 24.8603 1.03504 24.9028ZM16.019 24.7183C16.29 24.8022 16.506 24.5716 16.605 24.4397C16.884 24.0661 17.027 23.2323 16.609 22.3855C16.186 21.5304 15.715 20.2732 14.919 18.8609C14.811 18.6691 13.953 15.4738 13.564 14.8863C13.314 14.509 12.182 14.2138 11.667 14.3568C11.154 14.4988 11.505 14.9803 11.704 15.4028C11.704 15.4028 13.107 18.9144 13.25 19.217C13.699 20.168 15.227 21.6992 15.332 22.914C15.388 23.5505 15.429 24.0698 15.824 24.0154C15.918 24.341 15.919 24.6878 16.019 24.7183Z" fill="#D4AB88"/>
<path d="M11.7221 33.2414C12.0271 33.2414 12.0941 32.8558 11.8111 32.6612C11.4321 32.3983 10.9311 31.3965 10.2501 31.3965H9.00513C8.77613 31.3965 8.51513 32.5117 8.59513 32.7617C8.69713 33.08 9.02813 33.2414 9.40713 33.2414H11.7221ZM3.80913 33.2414C3.50413 33.2414 3.43713 32.8558 3.72013 32.6612C4.09913 32.3983 4.60013 31.3965 5.28113 31.3965H6.52613C6.75513 31.3965 7.01613 32.5117 6.93613 32.7617C6.83413 33.08 6.50313 33.2414 6.12513 33.2414H3.80913Z" fill="#292F33"/>
<path d="M12.1311 16.4267L13.7771 14.7931C12.3391 13.1401 9.7771 12.9483 9.7771 12.9483H5.7771C5.7771 12.9483 3.2151 13.1401 1.7771 14.7931L3.4231 16.4267C3.4231 16.4267 4.0271 19.1174 4.0271 19.4052C4.0271 19.693 2.7771 23.7866 2.7771 25.8621H12.7771C12.7771 23.7866 11.5271 19.693 11.5271 19.4052C11.5271 19.1174 12.1311 16.4267 12.1311 16.4267Z" fill="#E75A70"/>
<path d="M11.527 19.4052C11.527 19.3074 11.597 18.9329 11.688 18.4828H3.86596C3.95796 18.9329 4.02696 19.3074 4.02696 19.4052C4.02696 19.4817 3.90496 19.8747 3.80396 20.3276H11.746C11.638 19.8129 11.527 19.4817 11.527 19.4052Z" fill="#DA2F47"/>
<path d="M5.7771 10.181V13.8707C5.7771 14.889 6.6731 15.7155 7.7771 15.7155C8.8811 15.7155 9.7771 14.889 9.7771 13.8707V10.181H5.7771Z" fill="#D4AB88"/>
<path d="M9.7771 10.181L5.7771 10.1986V13.8707C5.7771 13.8707 7.7771 14.7931 9.7771 13.8707V10.181Z" fill="#CC9B7A"/>
<path d="M12.7771 2.80173H2.7771V8.33621C2.7771 10.8839 5.0151 12.9483 7.7771 12.9483C10.5391 12.9483 12.7771 10.8848 12.7771 8.33621V2.80173Z" fill="#D4AB88"/>
<path d="M12.7771 1.8793H2.7771L1.7771 6.49137C5.7771 6.49137 5.7771 2.80172 5.7771 2.80172C5.7771 2.80172 5.7771 6.49137 13.7771 6.49137L12.7771 1.8793Z" fill="#963B22"/>
<path d="M9.7771 11.1035H5.7771C5.7771 11.1035 5.7771 12.0259 7.7771 12.0259C9.7771 12.0259 9.7771 11.1035 9.7771 11.1035Z" fill="#DF1F32"/>
<path d="M5.2771 8.3362C5.55324 8.3362 5.7771 8.12971 5.7771 7.87499C5.7771 7.62028 5.55324 7.41379 5.2771 7.41379C5.00096 7.41379 4.7771 7.62028 4.7771 7.87499C4.7771 8.12971 5.00096 8.3362 5.2771 8.3362Z" fill="#662113"/>
<path d="M10.2771 8.3362C10.5532 8.3362 10.7771 8.12971 10.7771 7.87499C10.7771 7.62028 10.5532 7.41379 10.2771 7.41379C10.001 7.41379 9.7771 7.62028 9.7771 7.87499C9.7771 8.12971 10.001 8.3362 10.2771 8.3362Z" fill="#662113"/>
<path d="M6.7771 9.25861H8.7771C8.7771 9.25861 8.7771 10.181 7.7771 10.181C6.7771 10.181 6.7771 9.25861 6.7771 9.25861Z" fill="#C1694F"/>
<path d="M24.2771 0.0344849C23.0901 0.0344849 21.9951 0.38408 21.0961 0.973502C19.2501 1.06205 17.7771 2.45951 17.7771 4.18535C17.7771 5.60771 17.7841 7.39904 19.8151 8.06686C20.8131 9.34533 22.4371 10.181 24.2771 10.181C27.3141 10.181 29.7771 7.91005 29.7771 5.10868C29.7771 2.30639 27.3141 0.0344849 24.2771 0.0344849Z" fill="#292F33"/>
<path d="M15.894 24.7183C15.623 24.8022 15.407 24.5716 15.308 24.4397C15.029 24.0661 14.886 23.2323 15.304 22.3855C15.727 21.5304 16.006 20.4743 16.994 18.861C17.109 18.6728 17.488 16.328 18.236 14.8448C18.438 14.4435 19.731 14.2138 20.245 14.3568C20.758 14.4989 20.24 15.2608 20.208 15.4028C19.864 16.9257 18.903 19.1635 18.758 19.4651C17.958 21.131 16.793 21.6688 16.687 22.8836C16.632 23.5201 16.482 24.0698 16.087 24.0163C15.995 24.341 15.993 24.6878 15.894 24.7183ZM30.489 24.9065C30.746 25.0227 30.993 24.8198 31.109 24.7017C31.439 24.365 31.7 23.556 31.405 22.665C31.108 21.7656 30.981 20.6855 30.231 18.9661C30.144 18.766 30.102 16.3953 29.571 14.8346C29.428 14.4131 28.179 14.0275 27.649 14.1068C27.12 14.1862 27.525 15.0034 27.537 15.1482C27.661 16.6997 28.295 19.0344 28.396 19.3508C28.952 21.0987 30.03 21.7739 29.962 22.9906C29.926 23.6289 29.996 24.1916 30.395 24.1861C30.443 24.5209 30.395 24.864 30.489 24.9065Z" fill="#F7DECE"/>
<path d="M27.332 27.2457C27.832 24.7238 27.754 21.25 27.754 21.25H19.791C19.791 21.25 19.713 24.7238 20.213 27.2457C20.276 27.563 20.401 30.3302 20.104 32.319C20.038 32.7608 22.99 33.1833 22.948 32.2037C22.87 30.3874 23.212 28.9632 23.276 28.0528C23.311 27.5482 23.526 26.3233 23.62 25.0937C23.631 25.0771 23.915 25.0771 23.926 25.0937C24.02 26.3233 24.234 27.5482 24.27 28.0528C24.334 28.9632 24.676 30.3874 24.598 32.2037C24.556 33.1833 27.508 32.7608 27.442 32.319C27.145 30.3302 27.27 27.563 27.332 27.2457Z" fill="#AAB8C2"/>
<path d="M28.3169 33.2414C28.8159 32.8669 28.2759 32.1705 26.8969 31.9482C25.7339 31.7609 24.6969 31.9186 24.5339 32.271C24.3219 32.7258 24.4839 33.2414 24.4839 33.2414H28.3169ZM19.1999 33.2414C18.7009 32.8669 19.2409 32.1705 20.6199 31.9482C21.7829 31.7609 22.8199 31.9186 22.9829 32.271C23.1949 32.7267 23.0329 33.2423 23.0329 33.2423L19.1999 33.2414Z" fill="#292F33"/>
<path d="M28.574 13.6548C27.355 12.9483 25.777 12.9483 25.777 12.9483H21.777C21.777 12.9483 20.199 12.9483 18.98 13.6548C17.779 14.3503 17.324 16.4221 17.324 16.4221L19.527 17.0567L19.636 22.1724H27.917L28.026 17.0558L30.229 16.4212C30.23 16.4221 29.775 14.3503 28.574 13.6548Z" fill="#4289C1"/>
<path d="M21.7771 9.29736V12.987C21.7771 13.6161 22.6731 14.1908 23.7771 14.1908C24.8811 14.1908 25.7771 13.5746 25.7771 12.987V9.29736H21.7771Z" fill="#F7DECE"/>
<path d="M21.7771 12.987C21.7771 13.6161 22.6731 14.1908 23.7771 14.1908C24.8811 14.1908 25.7771 13.5746 25.7771 12.987V10.181L21.7771 10.1986V12.987Z" fill="#EEC2AD"/>
<path d="M28.7771 2.80173H18.7771V8.33621C18.7771 10.8839 21.0151 12.9483 23.7771 12.9483C26.5391 12.9483 28.7771 10.8848 28.7771 8.33621V2.80173Z" fill="#F7DECE"/>
<path d="M18.7771 2.34052L18.2771 4.64655L18.7771 6.49138C21.1101 6.49138 21.6271 4.26652 21.7421 3.274C21.7811 4.26652 22.5561 6.49138 28.7771 6.49138L29.2771 4.64655L28.7771 2.34052H18.7771Z" fill="#292F33"/>
<path d="M25.7771 11.1035H21.7771C21.7771 11.1035 21.7771 12.0259 23.7771 12.0259C25.7771 12.0259 25.7771 11.1035 25.7771 11.1035Z" fill="#C1694F"/>
<path d="M21.2771 8.3362C21.5532 8.3362 21.7771 8.12971 21.7771 7.87499C21.7771 7.62028 21.5532 7.41379 21.2771 7.41379C21.001 7.41379 20.7771 7.62028 20.7771 7.87499C20.7771 8.12971 21.001 8.3362 21.2771 8.3362Z" fill="#662113"/>
<path d="M26.2771 8.3362C26.5532 8.3362 26.7771 8.12971 26.7771 7.87499C26.7771 7.62028 26.5532 7.41379 26.2771 7.41379C26.001 7.41379 25.7771 7.62028 25.7771 7.87499C25.7771 8.12971 26.001 8.3362 26.2771 8.3362Z" fill="#662113"/>
<path d="M22.7771 9.25861H24.7771C24.7771 9.25861 24.7771 10.181 23.7771 10.181C22.7771 10.181 22.7771 9.25861 22.7771 9.25861Z" fill="#C1694F"/>
</svg>
