<svg width="32" height="32" viewBox="0 0 32 32" fill="none" xmlns="http://www.w3.org/2000/svg">
<path d="M31 16C31 17.1835 30.0406 18.1429 28.8571 18.1429H18.1429V28.8571C18.1429 30.0406 17.1835 31 16 31C14.8165 31 13.8571 30.0406 13.8571 28.8571V18.1429H3.14286C1.95939 18.1429 1 17.1835 1 16C1 14.8165 1.95939 13.8571 3.14286 13.8571H13.8571V3.14286C13.8571 1.95939 14.8165 1 16 1C17.1835 1 18.1429 1.95939 18.1429 3.14286V13.8571H28.8571C30.0406 13.8571 31 14.8165 31 16Z" fill="#E91E63" stroke="#E91E63" stroke-linejoin="round"/>
</svg>
