<svg width="60" height="25" viewBox="0 0 60 25" fill="none" xmlns="http://www.w3.org/2000/svg">
<path d="M30.6242 17.5748C31.1789 16.3315 31.803 15.1771 32.4964 14.1114C35.2701 9.75996 38.8759 7.09581 42.9671 6.29656C46.989 5.49732 51.4269 6.65178 55.7955 9.84877C57.0437 10.7368 58.3612 11.8913 59.6094 13.2234C59.6094 13.2234 59.6787 13.2234 59.6787 13.3122C60.0948 13.7562 60.0948 14.6442 59.7481 15.1771C55.3101 21.127 50.6642 24.2352 45.8795 24.8568C41.0255 25.5673 36.0329 23.6136 30.9709 19.4397C30.4855 18.9957 30.3468 18.1964 30.6242 17.5748ZM57.3211 14.4666C54.2006 12.0689 51.2189 10.648 48.3065 10.2928C48.4452 10.3816 48.5839 10.5592 48.7226 10.648C49.8321 11.8025 50.5948 13.4898 50.8029 15.4435C50.9415 17.3972 50.5255 19.2621 49.624 20.683C49.4853 20.8606 49.416 21.0382 49.2773 21.2158C52.051 19.9725 54.686 17.7524 57.3211 14.4666ZM41.1642 11.3585C38.3905 12.6905 35.7555 14.9107 33.1898 18.0188C36.2409 20.4166 39.2226 21.7486 42.135 22.1927C41.9963 22.1039 41.8577 22.0151 41.7883 21.8375C40.6095 20.7718 39.8467 19.0845 39.708 17.1308C39.5 15.0883 39.9854 13.2234 40.8869 11.8025C40.9562 11.7137 41.0255 11.5361 41.1642 11.3585Z" fill="black"/>
<path d="M29.3759 17.5748C29.6532 18.1964 29.5146 18.9957 29.0292 19.4397C23.9671 23.6136 18.9745 25.5673 14.1205 24.8568C9.33585 24.2352 4.68989 21.127 0.251959 15.1771C-0.0947543 14.6442 -0.0947543 13.7562 0.321302 13.3122C0.321302 13.2234 0.390644 13.2234 0.390644 13.2234C1.63881 11.8913 2.95632 10.7368 4.20449 9.84877C8.57308 6.65178 13.011 5.49732 17.0329 6.29656C21.1241 7.09581 24.7299 9.75996 27.5036 14.1114C28.197 15.1771 28.8211 16.3315 29.3759 17.5748ZM18.8358 11.3585C18.9745 11.5361 19.0438 11.7137 19.1132 11.8025C20.0146 13.2234 20.5 15.0883 20.292 17.1308C20.1533 19.0845 19.3905 20.7718 18.2117 21.8375C18.1424 22.0151 18.0037 22.1039 17.865 22.1927C20.7774 21.7486 23.7591 20.4166 26.8102 18.0188C24.2445 14.9107 21.6095 12.6905 18.8358 11.3585ZM10.7227 21.2158C10.584 21.0382 10.5147 20.8606 10.376 20.683C9.47453 19.2621 9.05848 17.3972 9.19716 15.4435C9.40519 13.4898 10.168 11.8025 11.2774 10.648C11.4161 10.5592 11.5548 10.3816 11.6935 10.2928C8.78111 10.648 5.79937 12.0689 2.67895 14.4666C5.31397 17.7524 7.94899 19.9725 10.7227 21.2158Z" fill="black"/>
<path d="M1.77753 3.54367C1.15344 3.72128 0.668045 3.27726 0.52936 2.56682C0.390675 1.85638 0.737388 1.14594 1.29213 0.968332C5.314 -0.186131 10.0293 -0.274935 14.4672 0.524308C19.1825 1.23475 23.6898 2.92204 26.7409 5.05335C27.2263 5.40857 27.4343 6.20782 27.1569 6.91826C26.8796 7.53989 26.2555 7.7175 25.7007 7.36228C22.927 5.40857 18.6971 3.81009 14.1899 3.09965C9.95996 2.47801 5.52203 2.47801 1.77753 3.54367Z" fill="black"/>
<path d="M58.7078 0.968332C59.2626 1.14594 59.6093 1.85638 59.4706 2.56682C59.3319 3.27726 58.8465 3.72128 58.2224 3.54367C54.4779 2.47801 50.04 2.47801 45.8101 3.09965C41.3028 3.81009 37.0729 5.40857 34.2992 7.36228C33.7444 7.7175 33.1204 7.53989 32.843 6.91826C32.5656 6.20782 32.7736 5.40857 33.259 5.05335C36.3101 2.92204 40.8174 1.23475 45.5327 0.524308C49.9706 -0.274935 54.6859 -0.186131 58.7078 0.968332Z" fill="black"/>
</svg>
