<svg width="65" height="20" viewBox="0 0 65 20" fill="none" xmlns="http://www.w3.org/2000/svg">
<path d="M60.6853 11.5186C60.8054 10.8643 60.8844 10.2044 60.9219 9.54211H63.5523C63.7423 9.54249 63.9305 9.50911 64.1061 9.44387C64.2817 9.37863 64.4413 9.28282 64.5758 9.16192C64.7103 9.04102 64.8169 8.89741 64.8897 8.73931C64.9625 8.58121 65 8.41172 65 8.24055C65 8.06938 64.9625 7.8999 64.8897 7.74179C64.8169 7.58369 64.7103 7.44008 64.5758 7.31918C64.4413 7.19828 64.2817 7.10247 64.1061 7.03723C63.9305 6.972 63.7423 6.93861 63.5523 6.939H60.7905C60.5698 5.59125 59.9431 4.32388 58.9784 3.27486C56.9091 1.07118 53.3699 0 48.1598 0C42.7516 0 38.9712 1.1897 36.9236 3.53575C36.544 3.97678 36.2249 4.45753 35.9733 4.96755C33.6789 4.56912 31.3211 4.56911 29.0267 4.96751C28.7751 4.4575 28.456 3.97677 28.0764 3.53575C26.0289 1.1897 22.2484 0 16.8402 0C11.6301 0 8.09093 1.07118 6.02157 3.27486C5.05693 4.32388 4.43016 5.59125 4.20947 6.939H1.44769C1.25773 6.93861 1.06955 6.972 0.893928 7.03723C0.718305 7.10247 0.558688 7.19828 0.424215 7.31918C0.289742 7.44008 0.183055 7.58369 0.110262 7.74179C0.037469 7.8999 0 8.06938 0 8.24055C0 8.41172 0.037469 8.58121 0.110262 8.73931C0.183055 8.89741 0.289742 9.04102 0.424215 9.16192C0.558688 9.28282 0.718305 9.37863 0.893928 9.44387C1.06955 9.50911 1.25773 9.54249 1.44769 9.54211H4.07811C4.11561 10.2044 4.19461 10.8643 4.31474 11.5186C5.31768 16.9088 9.45851 20 15.6757 20C22.3916 20 28.0122 16.55 29.3438 11.6104C29.7299 10.2665 29.865 8.87407 29.7435 7.49019C31.5663 7.19225 33.4337 7.19225 35.2565 7.49019C35.135 8.87418 35.2701 10.2667 35.6562 11.6107C36.9878 16.55 42.6084 20 49.3243 20C55.5415 20 59.6823 16.9088 60.6853 11.5186ZM26.5367 10.9962C25.5373 14.7051 20.969 17.3969 15.6757 17.3969C9.61085 17.3969 7.69948 13.9664 7.16416 11.0883C6.64153 8.27963 6.98924 6.27391 8.22634 4.95647C9.69337 3.39498 12.5915 2.60312 16.8402 2.60312C21.3174 2.60312 24.3333 3.45822 25.8052 5.14459C26.9754 6.48553 27.2215 8.4544 26.5367 10.9962ZM38.4633 10.9965C37.7785 8.4544 38.0246 6.48554 39.1947 5.14459C40.6667 3.45822 43.6826 2.60312 48.1598 2.60312C52.4085 2.60312 55.3066 3.39498 56.7736 4.95647C58.0107 6.27391 58.3584 8.27963 57.8358 11.0883C57.3005 13.9663 55.3891 17.3969 49.3242 17.3969C44.031 17.3969 39.4627 14.7051 38.4633 10.9965Z" fill="black"/>
</svg>
