<svg width="49" height="60" viewBox="0 0 49 60" fill="none" xmlns="http://www.w3.org/2000/svg">
<path d="M25.7609 31.809V29.1032L23.6795 28.4094C23.5408 27.9237 23.3327 27.5075 23.1245 27.0219L24.0958 25.0793L22.2226 23.206L20.28 24.1774C19.8637 23.9692 19.378 23.7611 18.8924 23.6224L18.268 21.541H15.5623L14.8685 23.6224C14.3828 23.7611 13.9665 23.9692 13.4809 24.1774L11.5383 23.206L9.66508 25.0793L10.6364 27.0219C10.4282 27.4381 10.2201 27.9238 10.0814 28.3401L8 28.9645V31.6702L10.0814 32.364C10.2201 32.8497 10.4282 33.266 10.6364 33.7516L9.66508 35.6941L11.5383 37.5674L13.4809 36.5961C13.8972 36.8042 14.3829 37.0124 14.7991 37.1511L15.4235 39.2324H18.1293L18.8231 37.1511C19.3088 37.0124 19.725 36.8042 20.1413 36.5961L22.0839 37.5674L23.9571 35.6941L22.9857 33.7516C23.1939 33.3353 23.402 32.8497 23.5407 32.364L25.7609 31.809ZM16.9498 33.5435C15.2847 33.5435 13.8972 32.1559 13.8972 30.4908C13.8972 28.8257 15.2847 27.4382 16.9498 27.4382C18.6149 27.4382 20.0024 28.8257 20.0024 30.4908C20.0024 32.1558 18.6843 33.5435 16.9498 33.5435Z" fill="#ACB3BA"/>
<path d="M16.9518 25.7031C14.3155 25.7031 12.1647 27.8539 12.1647 30.4902C12.1647 33.1266 14.3155 35.2773 16.9518 35.2773C19.5882 35.2773 21.739 33.1266 21.739 30.4902C21.739 27.8539 19.5882 25.7031 16.9518 25.7031ZM16.9518 33.5429C15.2868 33.5429 13.8992 32.1554 13.8992 30.4903C13.8992 28.8252 15.2868 27.4377 16.9518 27.4377C18.6169 27.4377 20.0045 28.8252 20.0045 30.4903C20.0045 32.1553 18.6863 33.5429 16.9518 33.5429Z" fill="#B8C0C8"/>
<path d="M40.1905 21.957L41.4393 18.9737L39.4274 17.2393C39.4968 16.6149 39.4968 16.0599 39.4274 15.5048L41.4393 13.8397L40.1905 10.8564L37.5541 11.0646C37.2073 10.5789 36.791 10.1626 36.3053 9.81577L36.5829 7.24875L33.5996 6L31.8651 8.01195C31.2407 7.94255 30.6857 7.94255 30.1306 8.01195L28.4656 6L25.4823 7.24881L25.6904 9.88517C25.2048 10.232 24.7885 10.6483 24.4416 11.134L21.8053 10.8564L20.5565 13.8397L22.5684 15.5742C22.499 16.1986 22.499 16.7536 22.5684 17.3087L20.5565 18.9738L21.8053 21.9571L24.4416 21.7489C24.7885 22.2346 25.2048 22.6509 25.6904 22.9978L25.4823 25.6341L28.4656 26.8829L30.2001 24.871C30.8245 24.9404 31.3795 24.9404 31.9346 24.871L33.5996 26.8829L36.5829 25.6341L36.3748 22.9978C36.8605 22.6509 37.2767 22.2346 37.6236 21.7489L40.1905 21.957ZM29.9919 18.9044C28.6043 18.3494 27.9799 16.7536 28.5349 15.4355C29.0899 14.0479 30.6857 13.4235 32.0038 13.9785C33.3914 14.5335 34.0158 16.1292 33.4608 17.4474C32.9058 18.835 31.3795 19.4594 29.9919 18.9044Z" fill="#E91E63"/>
<path d="M32.7681 12.2439C30.4092 11.2726 27.7728 12.3827 26.8015 14.7415C25.8303 17.1004 26.9403 19.7368 29.2992 20.7081C31.658 21.6793 34.2944 20.5693 35.2657 18.2104C36.1676 15.8516 35.0575 13.1459 32.7681 12.2439ZM29.9929 18.9042C28.6054 18.3492 27.9809 16.7535 28.536 15.4353C29.091 14.0478 30.6867 13.4234 32.0049 13.9784C33.3925 14.5334 34.0169 16.1291 33.4619 17.4473C32.9068 18.8348 31.3805 19.4593 29.9929 18.9042Z" fill="#CA084A"/>
</svg>
