<svg width="65" height="45" viewBox="0 0 65 45" fill="none" xmlns="http://www.w3.org/2000/svg">
<path d="M64.3383 10.991L52.2931 3.16496C49.2133 1.1509 45.3123 0 41.4113 0H40.3847C39.3581 0 38.6053 0.690537 38.6053 1.49616C38.6053 4.31586 35.9362 6.5601 32.5827 6.5601C29.2291 6.5601 26.56 4.25831 26.56 1.49616C26.56 0.632993 25.7388 0 24.7806 0H23.754C19.853 0 15.952 1.09335 12.8722 3.10742L0.690093 10.991C-0.0627357 11.509 -0.199614 12.3721 0.279459 13.0627L7.39711 21.6944C7.67087 22.0396 8.14994 22.2698 8.62901 22.3274C9.17653 22.3849 9.6556 22.2698 9.99779 21.9821L15.7467 17.954L14.7885 43.4463C14.7885 43.8491 14.9254 44.2519 15.2676 44.5396C15.6098 44.8274 16.0889 45 16.5679 45H48.3236C48.8027 45 49.2818 44.8274 49.624 44.5396C49.9662 44.2519 50.1715 43.8491 50.103 43.4463L49.1449 17.954L54.8938 21.9246C55.3044 22.2123 55.7835 22.3274 56.2625 22.2698C56.7416 22.2123 57.2207 21.9821 57.4944 21.6368L64.6121 13.0051C65.228 12.3721 65.0912 11.509 64.3383 10.991ZM55.715 18.587L48.3921 13.523C47.8445 13.1202 47.0917 13.0627 46.4758 13.3504C45.8598 13.6381 45.4492 14.156 45.4492 14.7315L46.4758 42.0077H18.4158L19.5108 14.7315C19.5108 14.156 19.1686 13.5806 18.4842 13.3504C17.8683 13.0627 17.1154 13.1778 16.5679 13.523L9.24496 18.587L4.24892 12.4872L14.9938 5.5243C17.3208 4.02813 20.1952 3.16496 23.0696 3.04987C23.8909 6.79028 27.8604 9.60998 32.5142 9.60998C37.1681 9.60998 41.1375 6.79028 41.9588 3.04987C44.9017 3.16496 47.7077 4.02813 50.0346 5.58184L60.7111 12.5448L55.715 18.587Z" fill="black"/>
</svg>
